SplineFontDB: 3.0
FontName: Bodoni-16-Book
FullName: Bodoni* 16 Book
FamilyName: Bodoni* 16
Weight: Book
Copyright: Copyright (c) 2017, Owen Earl,,, (EwonRael@yahoo.com)
Version: 001.0
ItalicAngle: 0
UnderlinePosition: -409
UnderlineWidth: 204
Ascent: 3276
Descent: 820
InvalidEm: 0
LayerCount: 2
Layer: 0 0 "Back" 1
Layer: 1 0 "Fore" 0
PreferredKerning: 4
XUID: [1021 31 -699969567 16487490]
FSType: 0
OS2Version: 0
OS2_WeightWidthSlopeOnly: 0
OS2_UseTypoMetrics: 1
CreationTime: 1460762150
ModificationTime: 1574016363
PfmFamily: 17
TTFWeight: 400
TTFWidth: 5
LineGap: 0
VLineGap: 0
OS2TypoAscent: 4194
OS2TypoAOffset: 0
OS2TypoDescent: -820
OS2TypoDOffset: 0
OS2TypoLinegap: 0
OS2WinAscent: 4096
OS2WinAOffset: 0
OS2WinDescent: 1638
OS2WinDOffset: 0
HheadAscent: 4194
HheadAOffset: 0
HheadDescent: -820
HheadDOffset: 0
OS2CapHeight: 3072
OS2XHeight: 1884
OS2FamilyClass: 768
OS2Vendor: 'it* '
OS2UnicodeRanges: 00000001.00000000.00000000.00000000
Lookup: 1 0 0 "'ss02' Style Set 2 lookup 4" { "'ss02' Style Set 2 lookup 4-1"  } ['ss02' ('DFLT' <'dflt' > 'grek' <'dflt' > 'latn' <'dflt' > ) ]
Lookup: 1 0 0 "'ss03' Style Set 3 lookup 5" { "'ss03' Style Set 3 lookup 5-1"  } ['ss03' ('DFLT' <'dflt' > 'grek' <'dflt' > 'latn' <'dflt' > ) ]
Lookup: 1 0 0 "'ss01' Style Set 1 lookup 2" { "'ss01' Style Set 1 lookup 2-1"  } ['ss01' ('DFLT' <'dflt' > 'grek' <'dflt' > 'latn' <'dflt' > ) ]
Lookup: 5 0 0 "'calt' Contextual Alternates lookup 3" { "'calt' Contextual Alternates lookup 3-1"  } ['calt' ('DFLT' <'dflt' > 'grek' <'dflt' > 'latn' <'dflt' > ) ]
Lookup: 4 0 1 "'liga' Standard Ligatures lookup 0" { "'liga' Standard Ligatures lookup 0-1"  } ['liga' ('DFLT' <'dflt' > 'grek' <'dflt' > 'latn' <'dflt' > ) ]
Lookup: 258 0 0 "'kern' Horizontal Kerning lookup 0" { "kerning like they all do" [150,0,6] } ['kern' ('DFLT' <'dflt' > 'grek' <'dflt' > 'latn' <'dflt' > ) ]
MarkAttachClasses: 1
DEI: 91125
KernClass2: 31 27 "kerning like they all do"

StartChar: ampersand
Encoding: 38 38 0
GlifName: ampersand
Width: 3292
Flags: HMW
LayerCount: 2
Fore
SplineSet
1427 1774 m 9
 1398 1812 l 1
 1594 1933 1847 2162 1847 2580 c 0
 1847 2773 1777 3064 1470 3064 c 0
 1155 3064 1049 2838 1049 2621 c 0
 1049 2478 1151 2269 1327 2007 c 2
 2611 56 l 1
 3150 56 l 1
 3150 0 l 1
 2191 0 l 1
 836 2007 l 2
 730 2163 647 2368 647 2511 c 0
 647 2880 995 3113 1470 3113 c 0
 1908 3113 2242 2898 2242 2570 c 0
 2242 2126 1859 1998 1427 1774 c 9
1136 1656 m 1
 1156 1617 l 1
 806 1429 614 1179 614 728 c 0
 614 401 881 71 1266 71 c 0
 2055 71 2668 1016 2746 1870 c 1
 2802 1870 l 1
 2706 957 2056 -41 1102 -41 c 0
 557 -41 164 233 164 707 c 0
 164 1302 981 1580 1136 1656 c 1
2228 1884 m 1
 3211 1884 l 1
 3211 1828 l 1
 2228 1828 l 1
 2228 1884 l 1
EndSplineSet
EndChar

StartChar: period
Encoding: 46 46 1
GlifName: period
Width: 818
Flags: HMW
LayerCount: 2
Fore
SplineSet
164 205 m 0
 164 340 275 451 410 451 c 0
 545 451 655 340 655 205 c 0
 655 70 545 -41 410 -41 c 0
 275 -41 164 70 164 205 c 0
EndSplineSet
EndChar

StartChar: zero
Encoding: 48 48 2
GlifName: zero
Width: 2538
Flags: HMW
LayerCount: 2
Fore
SplineSet
1270 -41 m 0
 602 -41 164 664 164 1536 c 0
 164 2408 643 3113 1270 3113 c 0
 1897 3113 2376 2408 2376 1536 c 0
 2376 664 1938 -41 1270 -41 c 0
1270 3061 m 0
 762 3061 635 2281 635 1536 c 0
 635 791 721 11 1270 11 c 0
 1819 11 1905 791 1905 1536 c 0
 1905 2281 1778 3061 1270 3061 c 0
EndSplineSet
EndChar

StartChar: one
Encoding: 49 49 3
GlifName: one
Width: 1780
VWidth: 4730
Flags: HMW
LayerCount: 2
Fore
SplineSet
205 56 m 1
 1577 56 l 1
 1577 0 l 1
 205 0 l 1
 205 56 l 1
274 3072 m 1
 1126 3072 l 1
 1126 16 l 1
 737 16 l 1
 737 3016 l 1
 274 3016 l 1
 274 3072 l 1
EndSplineSet
EndChar

StartChar: two
Encoding: 50 50 4
GlifName: two
Width: 2252
VWidth: 4730
Flags: HMW
LayerCount: 2
Fore
SplineSet
2109 0 m 1
 164 0 l 1
 164 266 l 1
 1058 1139 l 2
 1416 1490 1614 1868 1614 2253 c 0
 1614 2709 1411 3032 999 3032 c 0
 572 3032 270 2682 276 2268 c 1
 323 2335 379 2384 487 2384 c 0
 606 2384 729 2297 729 2154 c 0
 729 1990 614 1892 471 1892 c 0
 328 1892 212 1997 212 2238 c 0
 212 2717 521 3113 1126 3113 c 0
 1704 3113 2023 2745 2023 2335 c 0
 2023 1925 1726 1704 1505 1487 c 2
 353 369 l 1
 2054 369 l 1
 2054 676 l 1
 2109 676 l 1
 2109 0 l 1
EndSplineSet
EndChar

StartChar: three
Encoding: 51 51 5
GlifName: three
Width: 2129
VWidth: 4730
Flags: HMW
LayerCount: 2
Fore
SplineSet
1966 819 m 0
 1966 287 1520 -41 942 -41 c 0
 360 -41 98 259 98 554 c 0
 98 722 201 820 344 820 c 0
 467 820 566 738 566 591 c 0
 566 460 451 369 332 369 c 0
 245 369 191 410 165 461 c 1
 188 267 434 20 889 20 c 0
 1376 20 1552 434 1552 819 c 0
 1552 1122 1438 1632 746 1632 c 1
 746 1668 l 1
 1733 1668 1966 1270 1966 819 c 0
746 1650 m 1
 746 1686 l 1
 1397 1686 1430 2159 1430 2421 c 0
 1430 2724 1273 3052 949 3052 c 0
 655 3052 363 2886 300 2659 c 1
 340 2717 396 2740 455 2740 c 0
 574 2740 688 2661 688 2518 c 0
 688 2354 557 2289 455 2289 c 0
 332 2289 222 2375 222 2543 c 0
 222 2838 566 3109 984 3109 c 0
 1439 3109 1844 2872 1844 2421 c 0
 1844 2011 1692 1650 746 1650 c 1
EndSplineSet
EndChar

StartChar: four
Encoding: 52 52 6
GlifName: four
Width: 2436
VWidth: 4730
Flags: HMW
LayerCount: 2
Fore
SplineSet
2253 56 m 1
 2253 0 l 1
 1167 0 l 1
 1167 56 l 1
 1556 56 l 1
 1556 2876 l 1
 241 908 l 1
 2396 908 l 1
 2396 852 l 1
 136 852 l 1
 1618 3072 l 1
 1946 3072 l 1
 1946 56 l 1
 2253 56 l 1
EndSplineSet
Substitution2: "'ss03' Style Set 3 lookup 5-1" four.alt
EndChar

StartChar: five
Encoding: 53 53 7
GlifName: five
Width: 2048
VWidth: 4730
Flags: HMW
LayerCount: 2
Fore
SplineSet
1782 2703 m 1
 330 2703 l 1
 330 1544 l 1
 274 1544 l 1
 274 3072 l 1
 1726 3072 l 1
 1726 3297 l 1
 1782 3297 l 1
 1782 2703 l 1
205 399 m 1
 275 199 527 22 844 22 c 0
 1372 22 1495 557 1495 942 c 0
 1495 1409 1310 1847 945 1847 c 0
 611 1847 403 1666 342 1544 c 1
 290 1544 l 1
 356 1696 618 1925 1032 1925 c 0
 1569 1925 1925 1556 1925 942 c 0
 1925 410 1503 -41 885 -41 c 0
 467 -41 123 233 123 528 c 0
 123 696 233 782 356 782 c 0
 458 782 590 717 590 553 c 0
 590 410 475 328 356 328 c 0
 296 328 236 360 205 399 c 1
EndSplineSet
EndChar

StartChar: six
Encoding: 54 54 8
GlifName: six
Width: 2292
VWidth: 4730
Flags: HMW
LayerCount: 2
Fore
SplineSet
1761 1024 m 0
 1761 1573 1549 1925 1184 1925 c 0
 787 1925 614 1598 614 1147 c 1
 567 1147 l 1
 567 1626 737 2007 1274 2007 c 0
 1688 2007 2171 1720 2171 1024 c 0
 2171 410 1822 -41 1204 -41 c 0
 586 -41 205 410 205 1270 c 0
 205 2265 951 3113 1864 3113 c 1
 1864 3061 l 1
 1151 3061 621 2261 621 1393 c 1
 614 1147 l 1
 614 598 771 15 1217 15 c 0
 1663 15 1761 557 1761 1024 c 0
EndSplineSet
EndChar

StartChar: seven
Encoding: 55 55 9
GlifName: seven
Width: 2068
VWidth: 4730
Flags: HMW
LayerCount: 2
Fore
SplineSet
688 311 m 0
 688 635 976 1061 1205 1507 c 0
 1365 1814 1614 2327 1782 2683 c 1
 220 2683 l 1
 220 2376 l 1
 164 2376 l 1
 164 3072 l 1
 2028 3072 l 1
 2028 3072 1544 2074 1263 1505 c 0
 1074 1121 1014 981 1014 801 c 0
 1014 502 1221 441 1221 238 c 0
 1221 86 1138 -41 958 -41 c 0
 798 -41 688 55 688 311 c 0
EndSplineSet
EndChar

StartChar: eight
Encoding: 56 56 10
GlifName: eight
Width: 2252
VWidth: 4730
Flags: HMW
LayerCount: 2
Fore
SplineSet
655 2294 m 0
 655 1950 761 1608 1126 1608 c 0
 1491 1608 1597 1950 1597 2294 c 0
 1597 2638 1491 3057 1126 3057 c 0
 761 3057 655 2638 655 2294 c 0
246 2294 m 0
 246 2745 548 3113 1126 3113 c 0
 1704 3113 2007 2745 2007 2294 c 0
 2007 1843 1704 1569 1126 1569 c 0
 548 1569 246 1843 246 2294 c 0
573 778 m 0
 573 393 720 15 1126 15 c 0
 1532 15 1679 393 1679 778 c 0
 1679 1163 1532 1548 1126 1548 c 0
 720 1548 573 1163 573 778 c 0
164 778 m 0
 164 1270 467 1587 1126 1587 c 0
 1785 1587 2089 1270 2089 778 c 0
 2089 286 1785 -41 1126 -41 c 0
 467 -41 164 286 164 778 c 0
EndSplineSet
EndChar

StartChar: A
Encoding: 65 65 12
GlifName: A_
Width: 3112
Flags: HMW
LayerCount: 2
Fore
SplineSet
109 56 m 1
 1011 56 l 1
 1011 0 l 1
 109 0 l 1
 109 56 l 1
1816 56 m 1
 3004 56 l 1
 3004 0 l 1
 1816 0 l 1
 1816 56 l 1
862 1029 m 1
 2181 1029 l 1
 2181 973 l 1
 862 973 l 1
 862 1029 l 1
1433 2572 m 1
 536 0 l 1
 473 0 l 1
 1571 3133 l 1
 1627 3133 l 1
 2713 0 l 1
 2263 0 l 1
 1433 2572 l 1
EndSplineSet
EndChar

StartChar: B
Encoding: 66 66 13
GlifName: B_
Width: 2649
Flags: HMW
LayerCount: 2
Fore
SplineSet
1297 1567 m 2
 847 1567 l 1
 847 1606 l 1
 1297 1606 l 2
 1608 1606 1911 1786 1911 2273 c 0
 1911 2760 1608 3016 1297 3016 c 2
 109 3016 l 1
 109 3072 l 1
 1297 3072 l 2
 1915 3072 2321 2846 2321 2314 c 0
 2321 1782 1956 1567 1297 1567 c 2
478 3072 m 1
 867 3072 l 1
 867 0 l 1
 478 0 l 1
 478 3072 l 1
1379 0 m 2
 109 0 l 1
 109 56 l 1
 1338 56 l 2
 1690 56 1993 373 1993 860 c 0
 1993 1347 1690 1549 1338 1549 c 2
 847 1549 l 1
 847 1587 l 1
 1379 1587 l 2
 1957 1587 2444 1392 2444 860 c 0
 2444 246 2038 0 1379 0 c 2
EndSplineSet
EndChar

StartChar: C
Encoding: 67 67 14
GlifName: C_
Width: 2864
Flags: HMW
LayerCount: 2
Fore
SplineSet
2536 3072 m 1
 2585 3072 l 1
 2585 2232 l 1
 2541 2488 2423 2686 2299 2829 c 1
 2536 3072 l 1
2585 2232 m 1
 2530 2232 l 1
 2516 2718 2094 3042 1641 3042 c 0
 928 3042 678 2281 678 1536 c 0
 678 791 928 30 1641 30 c 0
 2190 30 2556 395 2570 840 c 1
 2625 840 l 1
 2625 336 2185 -41 1599 -41 c 0
 768 -41 207 623 207 1536 c 0
 207 2449 768 3113 1599 3113 c 0
 2123 3113 2585 2736 2585 2232 c 1
2625 840 m 1
 2625 0 l 1
 2577 0 l 1
 2353 270 l 1
 2474 416 2576 566 2625 840 c 1
EndSplineSet
EndChar

StartChar: D
Encoding: 68 68 15
GlifName: D_
Width: 2937
Flags: HMW
LayerCount: 2
Fore
SplineSet
478 3072 m 1
 867 3072 l 1
 867 0 l 1
 478 0 l 1
 478 3072 l 1
1256 0 m 2
 109 0 l 1
 109 56 l 1
 1256 56 l 2
 2010 56 2259 791 2259 1536 c 0
 2259 2281 1969 3016 1256 3016 c 2
 109 3016 l 1
 109 3072 l 1
 1256 3072 l 2
 2169 3072 2731 2408 2731 1536 c 0
 2731 664 2128 0 1256 0 c 2
EndSplineSet
EndChar

StartChar: E
Encoding: 69 69 16
GlifName: E_
Width: 2483
Flags: HMW
LayerCount: 2
Fore
SplineSet
2268 922 m 1
 2324 922 l 1
 2324 0 l 1
 109 0 l 1
 109 56 l 1
 1523 56 l 2
 2084 56 2268 402 2268 922 c 1
478 3072 m 1
 867 3072 l 1
 867 0 l 1
 478 0 l 1
 478 3072 l 1
109 3072 m 1
 2282 3072 l 1
 2282 2232 l 1
 2226 2232 l 1
 2226 2670 2042 3016 1563 3016 c 2
 109 3016 l 1
 109 3072 l 1
1530 1139 m 1
 1530 1413 1346 1562 1113 1562 c 2
 785 1562 l 1
 785 1618 l 1
 1113 1618 l 2
 1346 1618 1530 1745 1530 2019 c 1
 1586 2019 l 1
 1586 1139 l 1
 1530 1139 l 1
EndSplineSet
EndChar

StartChar: F
Encoding: 70 70 17
GlifName: F_
Width: 2401
Flags: HMW
LayerCount: 2
Fore
SplineSet
109 3072 m 1
 2242 3072 l 1
 2242 2232 l 1
 2186 2232 l 1
 2186 2670 2002 3016 1523 3016 c 2
 109 3016 l 1
 109 3072 l 1
109 56 m 1
 1277 56 l 1
 1277 0 l 1
 109 0 l 1
 109 56 l 1
478 3072 m 1
 867 3072 l 1
 867 0 l 1
 478 0 l 1
 478 3072 l 1
1571 1098 m 1
 1571 1372 1407 1500 1051 1500 c 2
 785 1500 l 1
 785 1556 l 1
 1051 1556 l 2
 1407 1556 1571 1663 1571 1937 c 1
 1627 1937 l 1
 1627 1098 l 1
 1571 1098 l 1
EndSplineSet
EndChar

StartChar: G
Encoding: 71 71 18
GlifName: G_
Width: 2989
Flags: HMW
LayerCount: 2
Fore
SplineSet
2585 2232 m 1
 2546 2458 2432 2680 2299 2831 c 1
 2536 3072 l 1
 2585 3072 l 1
 2585 2232 l 1
1805 1199 m 1
 2911 1199 l 1
 2911 1137 l 1
 1805 1137 l 1
 1805 1199 l 1
2235 1161 m 1
 2665 1161 l 1
 2665 676 l 1
 2542 418 2207 -41 1539 -41 c 0
 687 -41 207 623 207 1536 c 0
 207 2449 768 3113 1599 3113 c 0
 2123 3113 2585 2736 2585 2232 c 1
 2530 2232 l 1
 2516 2724 2097 3042 1641 3042 c 0
 928 3042 678 2281 678 1536 c 0
 678 791 847 16 1539 16 c 0
 2047 16 2194 422 2235 512 c 1
 2235 1161 l 1
EndSplineSet
EndChar

StartChar: H
Encoding: 72 72 19
GlifName: H_
Width: 3085
Flags: HMW
LayerCount: 2
Fore
SplineSet
785 1544 m 1
 2301 1544 l 1
 2301 1488 l 1
 785 1488 l 1
 785 1544 l 1
1809 56 m 1
 2977 56 l 1
 2977 0 l 1
 1809 0 l 1
 1809 56 l 1
109 56 m 1
 1277 56 l 1
 1277 0 l 1
 109 0 l 1
 109 56 l 1
1809 3072 m 1
 2977 3072 l 1
 2977 3016 l 1
 1809 3016 l 1
 1809 3072 l 1
109 3072 m 1
 1277 3072 l 1
 1277 3016 l 1
 109 3016 l 1
 109 3072 l 1
2219 3072 m 1
 2607 3072 l 1
 2607 0 l 1
 2219 0 l 1
 2219 3072 l 1
478 3072 m 1
 867 3072 l 1
 867 0 l 1
 478 0 l 1
 478 3072 l 1
EndSplineSet
EndChar

StartChar: I
Encoding: 73 73 20
GlifName: I_
Width: 1549
Flags: HMW
LayerCount: 2
Fore
SplineSet
109 56 m 1
 1441 56 l 1
 1441 0 l 1
 109 0 l 1
 109 56 l 1
109 3072 m 1
 1441 3072 l 1
 1441 3016 l 1
 109 3016 l 1
 109 3072 l 1
559 3072 m 1
 949 3072 l 1
 949 0 l 1
 559 0 l 1
 559 3072 l 1
EndSplineSet
EndChar

StartChar: J
Encoding: 74 74 21
GlifName: J_
Width: 1832
Flags: HMW
LayerCount: 2
Fore
SplineSet
392 3072 m 1
 1724 3072 l 1
 1724 3016 l 1
 392 3016 l 1
 392 3072 l 1
924 3072 m 1
 1314 3072 l 1
 1314 696 l 1
 1232 409 1070 -123 584 -123 c 0
 269 -123 102 133 102 338 c 0
 102 510 211 604 334 604 c 0
 436 604 564 530 564 362 c 0
 564 215 447 142 327 142 c 0
 257 142 215 159 198 165 c 5
 241 85 350 -67 576 -67 c 0
 894 -67 924 205 924 778 c 2
 924 3072 l 1
EndSplineSet
Substitution2: "'ss02' Style Set 2 lookup 4-1" J.alt
EndChar

StartChar: K
Encoding: 75 75 22
GlifName: K_
Width: 2850
Flags: HMW
LayerCount: 2
Fore
SplineSet
109 56 m 1
 1277 56 l 1
 1277 0 l 1
 109 0 l 1
 109 56 l 1
109 3072 m 1
 1277 3072 l 1
 1277 3016 l 1
 109 3016 l 1
 109 3072 l 1
478 3072 m 1
 867 3072 l 1
 867 0 l 1
 478 0 l 1
 478 3072 l 1
586 889 m 1
 507 889 l 1
 2121 3064 l 1
 2200 3064 l 1
 586 889 l 1
1523 56 m 1
 2792 56 l 1
 2792 0 l 1
 1523 0 l 1
 1523 56 l 1
2607 3016 m 1
 1625 3016 l 1
 1625 3072 l 1
 2607 3072 l 1
 2607 3016 l 1
2473 0 m 1
 1981 0 l 1
 1069 1616 l 1
 1320 1937 l 1
 2473 0 l 1
EndSplineSet
EndChar

StartChar: L
Encoding: 76 76 23
GlifName: L_
Width: 2422
Flags: HMW
LayerCount: 2
Fore
SplineSet
478 3072 m 1
 867 3072 l 1
 867 0 l 1
 478 0 l 1
 478 3072 l 1
109 3072 m 1
 1235 3072 l 1
 1235 3016 l 1
 109 3016 l 1
 109 3072 l 1
2303 0 m 1
 109 0 l 1
 109 56 l 1
 1502 56 l 2
 2145 56 2247 402 2247 922 c 1
 2303 922 l 1
 2303 0 l 1
EndSplineSet
EndChar

StartChar: M
Encoding: 77 77 24
GlifName: M_
Width: 3508
Flags: HMW
LayerCount: 2
Fore
SplineSet
3401 3072 m 1
 3401 3016 l 1
 3114 3016 l 1
 3114 0 l 1
 2725 0 l 1
 2725 3072 l 1
 3401 3072 l 1
129 56 m 1
 788 56 l 1
 788 0 l 1
 129 0 l 1
 129 56 l 1
2397 56 m 1
 3401 56 l 1
 3401 0 l 1
 2397 0 l 1
 2397 56 l 1
1790 516 m 1
 2683 3072 l 1
 2741 3072 l 1
 1658 -41 l 1
 1590 -41 l 1
 452 3072 l 1
 845 3072 l 1
 1790 516 l 1
422 3016 m 1
 109 3016 l 1
 109 3072 l 1
 480 3072 l 1
 480 0 l 1
 422 0 l 1
 422 3016 l 1
EndSplineSet
EndChar

StartChar: N
Encoding: 78 78 25
GlifName: N_
Width: 3109
Flags: HMW
LayerCount: 2
Fore
SplineSet
2512 3072 m 1
 2571 3072 l 1
 2571 -41 l 1
 2495 -41 l 1
 542 3072 l 1
 1013 3072 l 1
 2512 629 l 1
 2512 3072 l 1
2035 3072 m 1
 3001 3072 l 1
 3001 3016 l 1
 2035 3016 l 1
 2035 3072 l 1
109 56 m 1
 1069 56 l 1
 1069 0 l 1
 109 0 l 1
 109 56 l 1
523 3016 m 1
 109 3016 l 1
 109 3072 l 1
 581 3072 l 1
 581 0 l 1
 523 0 l 1
 523 3016 l 1
EndSplineSet
EndChar

StartChar: O
Encoding: 79 79 26
GlifName: O_
Width: 3034
Flags: HMW
LayerCount: 2
Fore
SplineSet
1518 -41 m 0
 687 -41 207 664 207 1536 c 0
 207 2408 727 3113 1518 3113 c 0
 2309 3113 2829 2408 2829 1536 c 0
 2829 664 2349 -41 1518 -41 c 0
1518 3061 m 0
 846 3061 678 2281 678 1536 c 0
 678 791 805 11 1518 11 c 0
 2231 11 2357 791 2357 1536 c 0
 2357 2281 2190 3061 1518 3061 c 0
EndSplineSet
EndChar

StartChar: P
Encoding: 80 80 27
GlifName: P_
Width: 2582
Flags: HMW
LayerCount: 2
Fore
SplineSet
478 3072 m 1
 867 3072 l 1
 867 0 l 1
 478 0 l 1
 478 3072 l 1
109 56 m 1
 1235 56 l 1
 1235 0 l 1
 109 0 l 1
 109 56 l 1
1317 1347 m 2
 785 1347 l 1
 785 1403 l 1
 1317 1403 l 2
 1710 1403 1932 1833 1932 2198 c 0
 1932 2563 1710 3016 1317 3016 c 2
 109 3016 l 1
 109 3072 l 1
 1317 3072 l 2
 2058 3072 2383 2730 2383 2198 c 0
 2383 1666 2058 1347 1317 1347 c 2
EndSplineSet
EndChar

StartChar: Q
Encoding: 81 81 28
GlifName: Q_
Width: 3034
Flags: HMW
LayerCount: 2
Fore
SplineSet
1518 -41 m 0
 687 -41 207 664 207 1536 c 0
 207 2408 727 3113 1518 3113 c 0
 2309 3113 2829 2408 2829 1536 c 0
 2829 664 2349 -41 1518 -41 c 0
1518 3061 m 0
 846 3061 678 2281 678 1536 c 0
 678 791 805 11 1518 11 c 0
 2231 11 2357 791 2357 1536 c 0
 2357 2281 2190 3061 1518 3061 c 0
2214 -968 m 1
 2214 -1024 l 1
 1342 -1024 1272 -714 1272 -5 c 1
 1433 -32 1582 -32 1743 -5 c 1
 1743 -750 1802 -968 2214 -968 c 1
EndSplineSet
EndChar

StartChar: R
Encoding: 82 82 29
GlifName: R_
Width: 2918
Flags: HMW
LayerCount: 2
Fore
SplineSet
1461 1553 m 2
 847 1553 l 1
 847 1588 l 1
 1461 1588 l 2
 1854 1588 2075 1851 2075 2297 c 0
 2075 2743 1854 3016 1461 3016 c 2
 109 3016 l 1
 109 3072 l 1
 1461 3072 l 2
 2079 3072 2485 2829 2485 2297 c 0
 2485 1765 2120 1553 1461 1553 c 2
109 56 m 1
 1399 56 l 1
 1399 0 l 1
 109 0 l 1
 109 56 l 1
559 3072 m 1
 949 3072 l 1
 949 0 l 1
 559 0 l 1
 559 3072 l 1
2833 45 m 1
 2767 8 2634 -20 2465 -20 c 0
 1511 -20 2449 1531 1441 1531 c 2
 847 1531 l 1
 847 1564 l 1
 1523 1564 l 2
 2901 1564 2113 47 2600 47 c 0
 2686 47 2756 67 2813 94 c 1
 2833 45 l 1
EndSplineSet
Substitution2: "'ss01' Style Set 1 lookup 2-1" R.alt
EndChar

StartChar: S
Encoding: 83 83 30
GlifName: S_
Width: 2335
Flags: HMW
LayerCount: 2
Fore
SplineSet
2040 2273 m 1
 1985 2273 l 1
 1903 2805 1573 3048 1166 3048 c 0
 773 3048 567 2844 567 2533 c 0
 567 1775 2182 1952 2182 819 c 0
 2182 287 1818 -61 1240 -61 c 0
 612 -61 311 307 213 799 c 1
 268 799 l 1
 358 338 643 -1 1205 -1 c 0
 1639 -1 1919 229 1919 648 c 0
 1919 1488 278 1290 278 2355 c 0
 278 2806 662 3113 1126 3113 c 0
 1609 3113 1958 2841 2040 2273 c 1
1992 3113 m 1
 2040 3113 l 1
 2040 2273 l 1
 1986 2464 1910 2662 1780 2834 c 1
 1992 3113 l 1
262 -41 m 1
 213 -41 l 1
 213 799 l 1
 295 568 361 419 470 262 c 1
 262 -41 l 1
EndSplineSet
EndChar

StartChar: T
Encoding: 84 84 31
GlifName: T_
Width: 2701
Flags: HMW
LayerCount: 2
Fore
SplineSet
706 56 m 1
 1996 56 l 1
 1996 0 l 1
 706 0 l 1
 706 56 l 1
1156 3058 m 1
 1546 3058 l 1
 1546 0 l 1
 1156 0 l 1
 1156 3058 l 1
1955 3016 m 2
 746 3016 l 2
 267 3016 165 2670 165 2150 c 1
 109 2150 l 1
 109 3072 l 1
 2592 3072 l 1
 2592 2150 l 1
 2536 2150 l 1
 2536 2670 2434 3016 1955 3016 c 2
EndSplineSet
EndChar

StartChar: U
Encoding: 85 85 32
GlifName: U_
Width: 2932
Flags: HMW
LayerCount: 2
Fore
SplineSet
1989 3072 m 1
 2816 3072 l 1
 2816 3016 l 1
 1989 3016 l 1
 1989 3072 l 1
100 3072 m 1
 1268 3072 l 1
 1268 3016 l 1
 100 3016 l 1
 100 3072 l 1
2367 3072 m 1
 2422 3072 l 1
 2422 942 l 2
 2422 266 2140 -61 1493 -61 c 0
 784 -61 469 233 469 942 c 2
 469 3072 l 1
 858 3072 l 1
 858 983 l 2
 858 442 984 10 1574 10 c 0
 2095 10 2367 292 2367 942 c 2
 2367 3072 l 1
EndSplineSet
EndChar

StartChar: V
Encoding: 86 86 33
GlifName: V_
Width: 3117
Flags: HMW
LayerCount: 2
Fore
SplineSet
3008 3016 m 1
 2076 3016 l 1
 2076 3072 l 1
 3008 3072 l 1
 3008 3016 l 1
1297 3016 m 1
 109 3016 l 1
 109 3072 l 1
 1297 3072 l 1
 1297 3016 l 1
1685 486 m 1
 2608 3072 l 1
 2673 3072 l 1
 1547 -61 l 1
 1482 -61 l 1
 396 3072 l 1
 846 3072 l 1
 1685 486 l 1
EndSplineSet
EndChar

StartChar: W
Encoding: 87 87 34
GlifName: W_
Width: 4064
Flags: HMW
LayerCount: 2
Fore
SplineSet
2190 1940 m 1
 1468 -47 l 1
 1407 -41 l 1
 441 3072 l 1
 851 3072 l 1
 1628 575 l 1
 2158 2029 l 1
 2190 1940 l 1
2272 1940 m 1
 2224 1985 l 1
 2586 3072 l 1
 2650 3066 l 1
 2272 1940 l 1
3988 3010 m 1
 3181 3016 l 1
 3181 3072 l 1
 3988 3066 l 1
 3988 3010 l 1
1952 3072 m 1
 2723 575 l 1
 3607 3072 l 1
 3668 3066 l 1
 2570 -47 l 1
 2509 -41 l 1
 1543 3072 l 1
 1952 3072 l 1
2976 3016 m 1
 77 3016 l 1
 77 3072 l 1
 2976 3072 l 1
 2976 3016 l 1
EndSplineSet
EndChar

StartChar: X
Encoding: 88 88 35
GlifName: X_
Width: 3088
Flags: HMW
LayerCount: 2
Fore
SplineSet
1564 1544 m 1
 1491 1544 l 1
 2400 3064 l 1
 2465 3064 l 1
 1564 1544 l 1
526 0 m 1
 457 0 l 1
 1540 1708 l 1
 1608 1708 l 1
 526 0 l 1
1837 56 m 1
 3002 56 l 1
 3002 0 l 1
 1837 0 l 1
 1837 56 l 1
71 56 m 1
 1043 56 l 1
 1043 0 l 1
 71 0 l 1
 71 56 l 1
1361 3016 m 1
 213 3016 l 1
 213 3072 l 1
 1361 3072 l 1
 1361 3016 l 1
2776 3016 m 1
 1885 3016 l 1
 1885 3072 l 1
 2776 3072 l 1
 2776 3016 l 1
2739 0 m 1
 2248 0 l 1
 459 3072 l 1
 935 3072 l 1
 2739 0 l 1
EndSplineSet
EndChar

StartChar: Y
Encoding: 89 89 36
GlifName: Y_
Width: 2963
Flags: HMW
LayerCount: 2
Fore
SplineSet
2877 3016 m 1
 2033 3016 l 1
 2033 3072 l 1
 2877 3072 l 1
 2877 3016 l 1
1259 3016 m 1
 71 3016 l 1
 71 3072 l 1
 1259 3072 l 1
 1259 3016 l 1
951 56 m 1
 2119 56 l 1
 2119 0 l 1
 951 0 l 1
 951 56 l 1
1675 1617 m 1
 2513 3064 l 1
 2579 3064 l 1
 1709 1569 l 1
 1709 0 l 1
 1319 0 l 1
 1319 1475 l 1
 343 3072 l 1
 794 3072 l 1
 1675 1617 l 1
EndSplineSet
EndChar

StartChar: Z
Encoding: 90 90 37
GlifName: Z_
Width: 2323
Flags: HMW
LayerCount: 2
Fore
SplineSet
175 3072 m 1
 2132 3072 l 1
 2132 3016 l 1
 514 56 l 1
 1404 56 l 2
 1965 56 2107 258 2107 778 c 1
 2162 778 l 1
 2162 0 l 1
 84 0 l 1
 84 56 l 1
 1702 3016 l 1
 935 3016 l 2
 374 3016 231 2814 231 2376 c 1
 175 2376 l 1
 175 3072 l 1
EndSplineSet
EndChar

StartChar: a
Encoding: 97 97 38
GlifName: a
Width: 2203
VWidth: 4730
Flags: HMW
LayerCount: 2
Fore
SplineSet
2149 202 m 1
 2062 48 1909 -41 1740 -41 c 0
 1547 -41 1376 41 1376 310 c 2
 1376 1249 l 2
 1376 1530 1337 1854 1009 1854 c 0
 798 1854 603 1773 518 1693 c 1
 698 1737 804 1625 804 1507 c 0
 804 1343 670 1274 565 1274 c 0
 442 1274 350 1352 350 1499 c 0
 350 1753 712 1917 1085 1917 c 0
 1682 1917 1739 1581 1739 1249 c 2
 1739 209 l 2
 1739 114 1775 56 1870 56 c 0
 1934 56 2038 117 2106 233 c 1
 2149 202 l 1
1109 1050 m 2
 1583 1050 l 1
 1583 994 l 1
 1109 994 l 2
 781 994 614 755 614 485 c 0
 614 235 717 61 911 61 c 0
 1146 61 1376 267 1376 749 c 1
 1423 749 l 1
 1423 254 1209 -41 768 -41 c 0
 434 -41 206 156 206 463 c 0
 206 814 500 1050 1109 1050 c 2
EndSplineSet
EndChar

StartChar: b
Encoding: 98 98 39
GlifName: b
Width: 2476
VWidth: 4730
Flags: HMW
LayerCount: 2
Fore
SplineSet
717 942 m 0
 717 1517 984 1922 1412 1922 c 0
 1848 1922 2273 1556 2273 942 c 0
 2273 328 1848 -40 1412 -40 c 0
 984 -40 717 367 717 942 c 0
772 942 m 0
 772 362 1043 42 1353 42 c 0
 1680 42 1849 394 1849 942 c 0
 1849 1490 1680 1838 1353 1838 c 0
 1043 1838 772 1522 772 942 c 0
403 3016 m 1
 144 3016 l 1
 144 3072 l 1
 772 3072 l 1
 772 0 l 1
 144 0 l 1
 144 56 l 1
 403 56 l 1
 403 3016 l 1
EndSplineSet
EndChar

StartChar: c
Encoding: 99 99 40
GlifName: c
Width: 2085
VWidth: 4730
Flags: HMW
LayerCount: 2
Fore
SplineSet
1750 1549 m 5
 1686 1739 1463 1865 1200 1865 c 0
 722 1865 636 1327 636 942 c 0
 636 475 739 28 1168 28 c 0
 1515 28 1707 249 1818 553 c 1
 1876 553 l 1
 1770 214 1554 -41 1140 -41 c 0
 603 -41 206 328 206 942 c 0
 206 1474 542 1925 1160 1925 c 0
 1578 1925 1840 1687 1840 1423 c 0
 1840 1262 1733 1176 1610 1176 c 0
 1508 1176 1376 1241 1376 1405 c 0
 1376 1539 1479 1614 1583 1614 c 0
 1659 1614 1730 1580 1750 1549 c 5
EndSplineSet
EndChar

StartChar: d
Encoding: 100 100 41
GlifName: d
Width: 2476
VWidth: 4730
Flags: HMW
LayerCount: 2
Fore
SplineSet
1760 941 m 0
 1760 365 1495 -38 1067 -38 c 0
 631 -38 206 327 206 941 c 0
 206 1555 631 1924 1067 1924 c 0
 1495 1924 1760 1517 1760 941 c 0
1705 941 m 0
 1705 1521 1436 1840 1126 1840 c 0
 799 1840 629 1490 629 941 c 0
 629 392 799 45 1126 45 c 0
 1436 45 1705 361 1705 941 c 0
2335 56 m 1
 2335 0 l 1
 1705 0 l 1
 1705 3016 l 1
 1446 3016 l 1
 1446 3072 l 1
 2075 3072 l 1
 2075 56 l 1
 2335 56 l 1
EndSplineSet
EndChar

StartChar: e
Encoding: 101 101 42
GlifName: e
Width: 2150
VWidth: 4730
Flags: HMW
LayerCount: 2
Fore
SplineSet
480 1074 m 1
 480 1131 l 1
 1511 1131 l 1
 1512 1420 1474 1869 1123 1869 c 0
 727 1869 629 1409 629 942 c 0
 629 475 735 21 1168 21 c 0
 1555 21 1802 250 1904 553 c 1
 1966 553 l 1
 1860 214 1590 -41 1143 -41 c 0
 617 -41 206 328 206 942 c 0
 206 1556 594 1925 1123 1925 c 0
 1723 1925 1945 1520 1945 1074 c 1
 480 1074 l 1
EndSplineSet
EndChar

StartChar: f
Encoding: 102 102 43
GlifName: f
Width: 1582
VWidth: 4730
Flags: HMW
LayerCount: 2
Fore
SplineSet
124 56 m 1
 1297 56 l 1
 1297 0 l 1
 124 0 l 1
 124 56 l 1
124 1884 m 1
 1379 1884 l 1
 1379 1828 l 1
 124 1828 l 1
 124 1884 l 1
1696 2818 m 5
 1651 2929 1515 3057 1271 3057 c 0
 943 3057 833 2732 833 2212 c 2
 833 0 l 1
 465 0 l 1
 465 2097 l 2
 465 2634 739 3113 1271 3113 c 0
 1603 3113 1775 2900 1775 2707 c 0
 1775 2539 1664 2454 1541 2454 c 0
 1439 2454 1311 2520 1311 2679 c 0
 1311 2831 1422 2899 1529 2899 c 0
 1600 2899 1658 2872 1696 2818 c 5
EndSplineSet
EndChar

StartChar: g
Encoding: 103 103 44
GlifName: g
Width: 2417
VWidth: 4730
Flags: HMW
LayerCount: 2
Fore
SplineSet
274 303 m 0
 274 606 676 726 1011 726 c 1
 1009 685 l 1
 833 685 557 601 557 434 c 0
 557 285 725 283 950 283 c 0
 1093 283 1167 287 1282 287 c 0
 1589 287 1951 221 1951 -336 c 0
 1951 -849 1501 -1065 1041 -1065 c 0
 562 -1065 144 -901 144 -512 c 0
 144 -139 540 -21 724 -21 c 2
 761 -21 l 1
 577 -113 520 -277 520 -435 c 0
 520 -706 693 -1002 1094 -1002 c 0
 1502 -1002 1840 -791 1840 -424 c 0
 1840 -147 1576 -37 1310 -37 c 0
 1224 -37 976 -37 886 -37 c 0
 517 -37 274 49 274 303 c 0
629 1290 m 0
 629 987 656 730 980 730 c 0
 1222 730 1330 987 1330 1290 c 0
 1330 1593 1222 1869 980 1869 c 0
 738 1869 629 1593 629 1290 c 0
246 1290 m 0
 246 1741 648 1925 980 1925 c 0
 1312 1925 1705 1741 1705 1290 c 0
 1705 839 1312 674 980 674 c 0
 648 674 246 839 246 1290 c 0
2227 1677 m 1
 2204 1772 2111 1850 1962 1850 c 0
 1803 1850 1570 1751 1488 1405 c 1
 1440 1432 l 1
 1522 1794 1798 1905 1962 1905 c 0
 2167 1905 2299 1764 2299 1608 c 0
 2299 1427 2189 1369 2087 1369 c 0
 1985 1369 1881 1438 1881 1573 c 0
 1881 1680 1972 1753 2069 1753 c 0
 2139 1753 2202 1724 2227 1677 c 1
EndSplineSet
EndChar

StartChar: h
Encoding: 104 104 45
GlifName: h
Width: 2417
VWidth: 4730
Flags: HMW
LayerCount: 2
Fore
SplineSet
1651 1252 m 2
 1651 1596 1609 1856 1383 1856 c 0
 941 1856 771 1261 771 917 c 1
 730 910 l 1
 730 1282 862 1925 1439 1925 c 0
 1912 1925 2015 1663 2015 1307 c 2
 2015 0 l 1
 1651 0 l 1
 1651 1252 l 2
1394 56 m 1
 2275 56 l 1
 2275 0 l 1
 1394 0 l 1
 1394 56 l 1
144 56 m 1
 1031 56 l 1
 1031 0 l 1
 144 0 l 1
 144 56 l 1
403 3016 m 1
 144 3016 l 1
 144 3072 l 1
 771 3072 l 1
 771 0 l 1
 403 0 l 1
 403 3016 l 1
EndSplineSet
EndChar

StartChar: i
Encoding: 105 105 46
GlifName: i
Width: 1214
VWidth: 4730
Flags: HMW
LayerCount: 2
Fore
SplineSet
164 56 m 1
 1051 56 l 1
 1051 0 l 1
 164 0 l 1
 164 56 l 1
321 2867 m 0
 321 3002 432 3113 567 3113 c 0
 702 3113 813 3002 813 2867 c 0
 813 2732 702 2621 567 2621 c 0
 432 2621 321 2732 321 2867 c 0
423 1828 m 1
 164 1828 l 1
 164 1884 l 1
 791 1884 l 1
 791 0 l 1
 423 0 l 1
 423 1828 l 1
EndSplineSet
EndChar

StartChar: j
Encoding: 106 106 47
GlifName: j
Width: 1229
VWidth: 4730
Flags: HMW
LayerCount: 2
Fore
SplineSet
391 2867 m 0
 391 3002 502 3113 637 3113 c 0
 772 3113 881 3002 881 2867 c 0
 881 2732 772 2621 637 2621 c 0
 502 2621 391 2732 391 2867 c 0
853 1884 m 1
 853 -49 l 2
 853 -586 743 -1065 211 -1065 c 0
 -121 -1065 -293 -851 -293 -618 c 0
 -293 -450 -184 -365 -61 -365 c 0
 41 -365 169 -422 169 -586 c 0
 169 -730 75 -813 -65 -813 c 0
 -117 -813 -197 -777 -221 -736 c 5
 -191 -866 -40 -1010 189 -1010 c 0
 558 -1010 485 -438 485 82 c 2
 485 1828 l 1
 144 1828 l 1
 144 1884 l 1
 853 1884 l 1
EndSplineSet
EndChar

StartChar: k
Encoding: 107 107 48
GlifName: k
Width: 2455
VWidth: 4730
Flags: HMW
LayerCount: 2
Fore
SplineSet
2197 0 m 1
 1744 0 l 1
 827 1075 l 1
 1853 1884 l 1
 1930 1884 l 1
 1135 1249 l 1
 2197 0 l 1
1410 56 m 1
 2353 56 l 1
 2353 0 l 1
 1410 0 l 1
 1410 56 l 1
2213 1828 m 1
 1354 1828 l 1
 1354 1884 l 1
 2213 1884 l 1
 2213 1828 l 1
144 56 m 1
 1139 56 l 1
 1139 0 l 1
 144 0 l 1
 144 56 l 1
485 3016 m 1
 144 3016 l 1
 144 3072 l 1
 853 3072 l 1
 853 0 l 1
 485 0 l 1
 485 3016 l 1
EndSplineSet
EndChar

StartChar: l
Encoding: 108 108 49
GlifName: l
Width: 1337
VWidth: 4730
Flags: HMW
LayerCount: 2
Fore
SplineSet
144 56 m 1
 1195 56 l 1
 1195 0 l 1
 144 0 l 1
 144 56 l 1
485 3016 m 1
 144 3016 l 1
 144 3072 l 1
 853 3072 l 1
 853 0 l 1
 485 0 l 1
 485 3016 l 1
EndSplineSet
EndChar

StartChar: m
Encoding: 109 109 50
GlifName: m
Width: 3502
VWidth: 4730
Flags: HMW
LayerCount: 2
Fore
SplineSet
1933 1307 m 2
 1933 0 l 1
 1571 0 l 1
 1571 1262 l 2
 1571 1606 1558 1853 1338 1853 c 0
 935 1853 765 1267 765 927 c 1
 723 919 l 1
 723 1291 855 1925 1401 1925 c 0
 1817 1925 1933 1663 1933 1307 c 2
144 56 m 1
 1025 56 l 1
 1025 0 l 1
 144 0 l 1
 144 56 l 1
1312 56 m 1
 2193 56 l 1
 2193 0 l 1
 1312 0 l 1
 1312 56 l 1
2478 56 m 1
 3359 56 l 1
 3359 0 l 1
 2478 0 l 1
 2478 56 l 1
403 1828 m 1
 144 1828 l 1
 144 1884 l 1
 765 1884 l 1
 765 0 l 1
 403 0 l 1
 403 1828 l 1
3100 1307 m 2
 3100 0 l 1
 2737 0 l 1
 2737 1262 l 2
 2737 1606 2712 1853 2492 1853 c 0
 2082 1853 1933 1267 1933 927 c 1
 1887 919 l 1
 1887 1291 2002 1925 2555 1925 c 0
 2971 1925 3100 1663 3100 1307 c 2
EndSplineSet
EndChar

StartChar: n
Encoding: 110 110 51
GlifName: n
Width: 2417
VWidth: 4730
Flags: HMW
LayerCount: 2
Fore
SplineSet
1651 1252 m 2
 1651 1596 1609 1856 1383 1856 c 0
 941 1856 771 1261 771 917 c 1
 730 910 l 1
 730 1282 862 1925 1439 1925 c 0
 1912 1925 2015 1663 2015 1307 c 2
 2015 0 l 1
 1651 0 l 1
 1651 1252 l 2
1394 56 m 1
 2275 56 l 1
 2275 0 l 1
 1394 0 l 1
 1394 56 l 1
144 56 m 1
 1031 56 l 1
 1031 0 l 1
 144 0 l 1
 144 56 l 1
403 1828 m 1
 144 1828 l 1
 144 1884 l 1
 771 1884 l 1
 771 0 l 1
 403 0 l 1
 403 1828 l 1
EndSplineSet
EndChar

StartChar: o
Encoding: 111 111 52
GlifName: o
Width: 2285
VWidth: 4730
Flags: HMW
LayerCount: 2
Fore
SplineSet
629 942 m 0
 629 557 701 15 1144 15 c 0
 1587 15 1658 557 1658 942 c 0
 1658 1327 1587 1869 1144 1869 c 0
 701 1869 629 1327 629 942 c 0
206 942 m 0
 206 1474 566 1925 1144 1925 c 0
 1722 1925 2082 1474 2082 942 c 0
 2082 410 1722 -41 1144 -41 c 0
 566 -41 206 410 206 942 c 0
EndSplineSet
EndChar

StartChar: p
Encoding: 112 112 53
GlifName: p
Width: 2476
VWidth: 4730
Flags: HMW
LayerCount: 2
Fore
SplineSet
716 942 m 0
 716 1518 983 1921 1411 1921 c 0
 1847 1921 2273 1556 2273 942 c 0
 2273 328 1847 -41 1411 -41 c 0
 983 -41 716 366 716 942 c 0
771 942 m 0
 771 362 1043 42 1353 42 c 0
 1680 42 1849 393 1849 942 c 0
 1849 1491 1680 1838 1353 1838 c 0
 1043 1838 771 1522 771 942 c 0
144 -968 m 1
 1031 -968 l 1
 1031 -1024 l 1
 144 -1024 l 1
 144 -968 l 1
403 1828 m 1
 144 1828 l 1
 144 1884 l 1
 771 1884 l 1
 771 -1024 l 1
 403 -1024 l 1
 403 1828 l 1
EndSplineSet
EndChar

StartChar: q
Encoding: 113 113 54
GlifName: q
Width: 2476
VWidth: 4730
Flags: HMW
LayerCount: 2
Fore
SplineSet
1760 941 m 0
 1760 365 1495 -38 1067 -38 c 0
 631 -38 206 327 206 941 c 0
 206 1555 631 1924 1067 1924 c 0
 1495 1924 1760 1517 1760 941 c 0
1705 941 m 0
 1705 1521 1436 1840 1126 1840 c 0
 799 1840 629 1490 629 941 c 0
 629 392 799 45 1126 45 c 0
 1436 45 1705 361 1705 941 c 0
2335 -968 m 1
 2335 -1024 l 1
 1446 -1024 l 1
 1446 -968 l 1
 2335 -968 l 1
2335 1884 m 1
 2335 1828 l 1
 2075 1828 l 1
 2075 -1024 l 1
 1705 -1024 l 1
 1705 1884 l 1
 2335 1884 l 1
EndSplineSet
EndChar

StartChar: r
Encoding: 114 114 55
GlifName: r
Width: 1785
VWidth: 4730
Flags: HMW
LayerCount: 2
Fore
SplineSet
1565 1755 m 1
 1516 1825 1416 1869 1314 1869 c 0
 933 1869 765 1339 765 890 c 1
 719 890 l 1
 719 1373 876 1925 1314 1925 c 0
 1515 1925 1678 1790 1678 1610 c 0
 1678 1471 1593 1360 1444 1360 c 0
 1309 1360 1205 1436 1205 1578 c 0
 1205 1753 1413 1852 1565 1755 c 1
144 56 m 1
 1041 56 l 1
 1041 0 l 1
 144 0 l 1
 144 56 l 1
403 1828 m 1
 144 1828 l 1
 144 1884 l 1
 765 1884 l 1
 765 0 l 1
 403 0 l 1
 403 1828 l 1
EndSplineSet
EndChar

StartChar: s
Encoding: 115 115 56
GlifName: s
Width: 1806
VWidth: 4730
Flags: HMW
LayerCount: 2
Fore
SplineSet
1408 1555 m 1
 1372 1618 1325 1675 1268 1728 c 1
 1450 1925 l 1
 1500 1925 l 1
 1500 1352 l 1
 1449 1352 l 1
 1447 1421 1436 1484 1408 1555 c 1
1492 1352 m 1
 1444 1352 l 1
 1430 1602 1176 1862 821 1862 c 0
 610 1862 442 1755 442 1571 c 0
 442 1106 1612 1271 1612 572 c 0
 1612 207 1317 -41 929 -41 c 0
 553 -41 226 230 206 549 c 1
 255 549 l 1
 288 258 580 20 901 20 c 0
 1137 20 1368 123 1368 380 c 0
 1368 897 254 650 254 1382 c 0
 254 1644 428 1921 817 1921 c 0
 1209 1921 1492 1622 1492 1352 c 1
247 -41 m 1
 199 -41 l 1
 199 549 l 1
 252 549 l 1
 250 458 270 383 301 333 c 1
 363 252 392 207 436 161 c 1
 247 -41 l 1
EndSplineSet
EndChar

StartChar: t
Encoding: 116 116 57
GlifName: t
Width: 1380
VWidth: 4730
Flags: HMW
LayerCount: 2
Fore
SplineSet
102 1884 m 1
 1191 1884 l 1
 1191 1828 l 1
 102 1828 l 1
 102 1884 l 1
1312 368 m 1
 1207 133 1031 -29 774 -29 c 0
 438 -29 385 230 385 455 c 2
 385 2294 l 1
 508 2294 671 2356 753 2417 c 1
 753 338 l 2
 753 133 799 80 913 80 c 0
 1052 80 1189 233 1265 396 c 1
 1312 368 l 1
EndSplineSet
EndChar

StartChar: u
Encoding: 117 117 58
GlifName: u
Width: 2423
VWidth: 4730
Flags: HMW
LayerCount: 2
Fore
SplineSet
771 1884 m 1
 771 632 l 2
 771 288 809 28 1035 28 c 0
 1477 28 1651 623 1651 967 c 1
 1692 975 l 1
 1692 603 1557 -41 979 -41 c 0
 506 -41 403 222 403 578 c 2
 403 1828 l 1
 144 1828 l 1
 144 1884 l 1
 771 1884 l 1
2021 56 m 1
 2281 56 l 1
 2281 0 l 1
 1651 0 l 1
 1651 1828 l 1
 1365 1828 l 1
 1365 1884 l 1
 2021 1884 l 1
 2021 56 l 1
EndSplineSet
EndChar

StartChar: v
Encoding: 118 118 59
GlifName: v
Width: 2236
VWidth: 4730
Flags: HMW
LayerCount: 2
Fore
SplineSet
2149 1829 m 1
 1442 1829 l 1
 1442 1884 l 1
 2149 1884 l 1
 2149 1829 l 1
1044 1829 m 1
 62 1829 l 1
 62 1884 l 1
 1044 1884 l 1
 1044 1829 l 1
1241 419 m 1
 1840 1884 l 1
 1907 1884 l 1
 1119 -41 l 1
 1058 -41 l 1
 268 1884 l 1
 676 1884 l 1
 1241 419 l 1
EndSplineSet
EndChar

StartChar: w
Encoding: 119 119 60
GlifName: w
Width: 3129
VWidth: 4730
Flags: HMW
LayerCount: 2
Fore
SplineSet
972 1829 m 1
 62 1829 l 1
 62 1884 l 1
 972 1884 l 1
 972 1829 l 1
3042 1829 m 1
 2280 1829 l 1
 2280 1884 l 1
 3042 1884 l 1
 3042 1829 l 1
1087 448 m 1
 1709 1925 l 1
 1771 1925 l 1
 2217 516 l 1
 2675 1884 l 1
 2739 1884 l 1
 2095 -41 l 1
 2040 -41 l 1
 1547 1388 l 1
 943 -41 l 1
 884 -41 l 1
 275 1884 l 1
 639 1884 l 1
 1087 448 l 1
EndSplineSet
EndChar

StartChar: x
Encoding: 120 120 61
GlifName: x
Width: 2337
VWidth: 4730
Flags: HMW
LayerCount: 2
Fore
SplineSet
1372 55 m 1
 2235 55 l 1
 2235 0 l 1
 1372 0 l 1
 1372 55 l 1
102 55 m 1
 837 55 l 1
 837 0 l 1
 102 0 l 1
 102 55 l 1
1097 1829 m 1
 144 1829 l 1
 144 1884 l 1
 1097 1884 l 1
 1097 1829 l 1
2173 1829 m 1
 1462 1829 l 1
 1462 1884 l 1
 2173 1884 l 1
 2173 1829 l 1
2077 0 m 1
 1635 0 l 1
 341 1884 l 1
 785 1884 l 1
 2077 0 l 1
395 0 m 1
 325 0 l 1
 1841 1884 l 1
 1911 1884 l 1
 395 0 l 1
EndSplineSet
EndChar

StartChar: y
Encoding: 121 121 62
GlifName: y
Width: 2246
VWidth: 4730
Flags: HMW
LayerCount: 2
Fore
SplineSet
976 1829 m 1
 62 1829 l 1
 62 1884 l 1
 976 1884 l 1
 976 1829 l 1
2227 1829 m 1
 1583 1829 l 1
 1583 1884 l 1
 2227 1884 l 1
 2227 1829 l 1
1359 380 m 1
 1161 -81 l 1
 222 1884 l 1
 632 1884 l 1
 1359 380 l 1
807 -828 m 1
 1939 1884 l 1
 2006 1884 l 1
 882 -811 l 2
 810 -980 741 -1081 585 -1081 c 0
 483 -1081 356 -1016 356 -860 c 0
 356 -725 450 -631 581 -631 c 0
 691 -631 784 -709 807 -828 c 1
EndSplineSet
EndChar

StartChar: z
Encoding: 122 122 63
GlifName: z
Width: 1909
VWidth: 4730
Flags: HMW
LayerCount: 2
Fore
SplineSet
867 1829 m 2
 400 1829 293 1594 293 1180 c 1
 238 1180 l 1
 238 1884 l 1
 1699 1884 l 1
 1699 1829 l 1
 555 55 l 1
 1043 55 l 2
 1604 55 1710 246 1710 754 c 1
 1765 754 l 1
 1765 0 l 1
 124 0 l 1
 124 55 l 1
 1263 1829 l 1
 867 1829 l 2
EndSplineSet
EndChar

StartChar: comma
Encoding: 44 44 65
GlifName: comma
Width: 880
Flags: HMW
LayerCount: 2
Fore
SplineSet
164 201 m 0
 164 336 282 442 438 442 c 0
 598 442 725 315 725 16 c 0
 725 -271 525 -614 156 -614 c 1
 156 -559 l 1
 472 -559 716 -248 651 144 c 1
 621 44 533 -41 408 -41 c 0
 246 -41 164 66 164 201 c 0
EndSplineSet
EndChar

StartChar: exclam
Encoding: 33 33 67
GlifName: exclam
Width: 1297
Flags: HMW
LayerCount: 2
Fore
SplineSet
886 2699 m 0
 841 1978 673 1466 673 852 c 1
 618 852 l 1
 618 1466 448 1978 403 2699 c 0
 403 2728 403 2752 403 2777 c 0
 403 2965 452 3105 645 3105 c 0
 838 3105 891 2965 891 2777 c 0
 891 2752 886 2728 886 2699 c 0
EndSplineSet
Refer: 1 46 N 1 0 0 1 239 0 2
EndChar

StartChar: quotesingle
Encoding: 39 39 70
GlifName: quotesingle
Width: 818
Flags: HMW
LayerCount: 2
Fore
SplineSet
610 2789 m 24
 565 2482 438 2450 438 1999 c 1
 382 1999 l 1
 382 2450 254 2482 209 2789 c 24
 205 2818 205 2838 205 2863 c 0
 205 3023 291 3113 410 3113 c 0
 529 3113 614 3023 614 2863 c 0
 614 2838 614 2818 610 2789 c 24
EndSplineSet
EndChar

StartChar: question
Encoding: 63 63 75
GlifName: question
Width: 2252
Flags: HMW
LayerCount: 2
Fore
SplineSet
984 1437 m 1
 1422 1537 1634 1913 1634 2294 c 0
 1634 2679 1550 3056 1063 3056 c 0
 640 3056 356 2737 316 2537 c 1
 341 2576 399 2621 486 2621 c 0
 605 2621 713 2539 713 2396 c 0
 713 2232 581 2167 479 2167 c 0
 356 2167 246 2253 246 2421 c 0
 246 2757 631 3113 1090 3113 c 0
 1668 3113 2048 2786 2048 2294 c 0
 2048 1823 1618 1443 1040 1406 c 1
 1040 856 l 1
 984 856 l 1
 984 1437 l 1
EndSplineSet
Refer: 1 46 N 1 0 0 1 610 0 2
EndChar

StartChar: parenleft
Encoding: 40 40 76
GlifName: parenleft
Width: 1482
Flags: HMW
LayerCount: 2
Fore
SplineSet
1431 -654 m 1
 1405 -696 l 1
 737 -409 266 377 266 1331 c 0
 266 2285 737 2990 1405 3277 c 1
 1431 3234 l 1
 923 2906 655 2117 655 1331 c 0
 655 545 923 -326 1431 -654 c 1
EndSplineSet
EndChar

StartChar: at
Encoding: 64 64 79
GlifName: at
Width: 4136
VWidth: 4730
Flags: HMW
LayerCount: 2
Fore
SplineSet
2557 1444 m 0
 2557 808 2188 287 1778 287 c 0
 1454 287 1163 516 1163 942 c 0
 1163 1556 1635 2167 2122 2167 c 0
 2454 2167 2557 1780 2557 1444 c 0
2512 1417 m 0
 2512 1589 2471 2090 2173 2090 c 0
 1870 2090 1577 1463 1577 955 c 0
 1577 681 1638 366 1872 366 c 0
 2161 366 2512 878 2512 1417 c 0
2417 860 m 2
 2712 2130 l 1
 3080 2130 l 1
 2785 860 l 2
 2773 807 2593 349 2908 349 c 0
 3449 349 3856 1004 3856 1642 c 0
 3856 2373 3403 3180 2393 3180 c 0
 1233 3180 282 2115 282 864 c 0
 282 -376 993 -820 1716 -820 c 0
 2385 -820 2814 -621 3173 -221 c 1
 3215 -262 l 1
 2871 -663 2384 -877 1716 -877 c 0
 966 -877 225 -421 225 864 c 0
 225 2146 1196 3236 2396 3236 c 0
 3432 3236 3912 2392 3912 1642 c 0
 3912 987 3530 279 2830 279 c 0
 2465 279 2360 606 2417 860 c 2
EndSplineSet
EndChar

StartChar: dollar
Encoding: 36 36 80
GlifName: dollar
Width: 2272
Flags: HMW
LayerCount: 2
Fore
SplineSet
1277 3400 m 1
 1332 3400 l 1
 1332 -328 l 1
 1277 -328 l 1
 1277 3400 l 1
913 3400 m 1
 969 3400 l 1
 969 -328 l 1
 913 -328 l 1
 913 3400 l 1
1964 2562 m 1
 1924 2806 1631 3060 1206 3060 c 0
 772 3060 532 2802 532 2478 c 0
 532 1720 2109 1966 2109 860 c 0
 2109 287 1718 -61 1140 -61 c 0
 433 -61 123 328 123 594 c 0
 123 782 230 930 410 930 c 0
 533 930 672 839 672 659 c 0
 672 495 536 393 397 393 c 0
 313 393 237 441 195 489 c 1
 254 292 526 -13 1133 -13 c 0
 1567 -13 1823 270 1823 676 c 0
 1823 1516 246 1249 246 2314 c 0
 246 2806 707 3113 1203 3113 c 0
 1673 3113 2028 2810 2028 2478 c 0
 2028 2290 1921 2142 1741 2142 c 0
 1618 2142 1479 2233 1479 2413 c 0
 1479 2577 1614 2679 1753 2679 c 0
 1842 2679 1931 2625 1964 2562 c 1
EndSplineSet
EndChar

StartChar: numbersign
Encoding: 35 35 81
GlifName: numbersign
Width: 2602
Flags: HMW
LayerCount: 2
Fore
SplineSet
123 1056 m 1
 2357 1056 l 1
 2357 1000 l 1
 123 1000 l 1
 123 1056 l 1
246 2134 m 1
 2481 2134 l 1
 2481 2078 l 1
 246 2078 l 1
 246 2134 l 1
1851 3088 m 1
 1907 3092 l 1
 1498 -20 l 1
 1442 -25 l 1
 1851 3088 l 1
1065 3092 m 1
 1121 3092 l 1
 711 -20 l 1
 655 -20 l 1
 1065 3092 l 1
EndSplineSet
EndChar

StartChar: slash
Encoding: 47 47 82
GlifName: slash
Width: 2150
Flags: HMW
LayerCount: 2
Fore
SplineSet
1933 3195 m 1
 1989 3195 l 1
 220 -614 l 1
 164 -614 l 1
 1933 3195 l 1
EndSplineSet
EndChar

StartChar: percent
Encoding: 37 37 83
GlifName: percent
Width: 4096
Flags: HMW
LayerCount: 2
Fore
SplineSet
2765 860 m 0
 2765 442 2830 15 3133 15 c 0
 3436 15 3502 442 3502 860 c 0
 3502 1278 3436 1706 3133 1706 c 0
 2830 1706 2765 1278 2765 860 c 0
2314 860 m 0
 2314 1446 2670 1761 3133 1761 c 0
 3596 1761 3953 1446 3953 860 c 0
 3953 274 3514 -41 3133 -41 c 0
 2670 -41 2314 274 2314 860 c 0
3080 3072 m 1
 3145 3072 l 1
 1016 0 l 1
 951 0 l 1
 3080 3072 l 1
594 2212 m 0
 594 1794 660 1366 963 1366 c 0
 1266 1366 1331 1794 1331 2212 c 0
 1331 2630 1266 3057 963 3057 c 0
 660 3057 594 2630 594 2212 c 0
143 2212 m 0
 143 2798 500 3113 963 3113 c 0
 1426 3113 1782 2798 1782 2212 c 0
 1782 1626 1344 1311 963 1311 c 0
 500 1311 143 1626 143 2212 c 0
EndSplineSet
EndChar

StartChar: hyphen
Encoding: 45 45 85
GlifName: hyphen
Width: 1474
Flags: HMW
LayerCount: 2
Fore
SplineSet
246 1154 m 1
 1229 1154 l 1
 1229 1098 l 1
 246 1098 l 1
 246 1154 l 1
EndSplineSet
EndChar

StartChar: plus
Encoding: 43 43 87
GlifName: plus
Width: 2170
Flags: HMW
LayerCount: 2
Fore
SplineSet
1058 451 m 1
 1058 2130 l 1
 1114 2130 l 1
 1114 451 l 1
 1058 451 l 1
246 1322 m 1
 1925 1322 l 1
 1925 1266 l 1
 246 1266 l 1
 246 1322 l 1
EndSplineSet
EndChar

StartChar: less
Encoding: 60 60 89
GlifName: less
Width: 2292
Flags: HMW
LayerCount: 2
Fore
SplineSet
246 1566 m 1
 246 1625 l 1
 2048 2475 l 1
 2048 2415 l 1
 246 1566 l 1
246 1550 m 1
 246 1610 l 1
 2048 759 l 1
 2048 700 l 1
 246 1550 l 1
EndSplineSet
EndChar

StartChar: backslash
Encoding: 92 92 91
GlifName: backslash
Width: 2150
Flags: HMW
LayerCount: 2
Fore
SplineSet
226 3195 m 1
 1989 -614 l 1
 1927 -614 l 1
 164 3195 l 1
 226 3195 l 1
EndSplineSet
EndChar

StartChar: bracketleft
Encoding: 91 91 92
GlifName: bracketleft
Width: 1330
Flags: HMW
LayerCount: 2
Fore
SplineSet
1208 -614 m 1
 225 -614 l 1
 225 -558 l 1
 1208 -558 l 1
 1208 -614 l 1
1208 3139 m 1
 225 3139 l 1
 225 3195 l 1
 1208 3195 l 1
 1208 3139 l 1
594 3195 m 1
 594 -614 l 1
 225 -614 l 1
 225 3195 l 1
 594 3195 l 1
EndSplineSet
EndChar

StartChar: braceleft
Encoding: 123 123 93
GlifName: braceleft
Width: 1114
VWidth: 4730
Flags: HMW
LayerCount: 2
Fore
SplineSet
991 3195 m 1
 991 3139 l 1
 737 3139 606 2908 606 2650 c 0
 606 2339 745 2175 745 1765 c 0
 745 1425 528 1365 225 1283 c 1
 225 1320 l 1
 348 1361 471 1454 471 1622 c 0
 471 1880 225 2065 225 2626 c 0
 225 2991 397 3195 991 3195 c 1
991 -614 m 1
 397 -614 225 -406 225 -41 c 0
 225 520 471 705 471 963 c 0
 471 1131 348 1221 225 1262 c 1
 225 1300 l 1
 528 1218 745 1159 745 819 c 0
 745 409 606 245 606 -66 c 0
 606 -324 737 -558 991 -558 c 1
 991 -614 l 1
EndSplineSet
EndChar

StartChar: bar
Encoding: 124 124 96
GlifName: bar
Width: 964
VWidth: 4730
Flags: HMW
LayerCount: 2
Fore
SplineSet
454 3195 m 1
 511 3195 l 1
 511 -1024 l 1
 454 -1024 l 1
 454 3195 l 1
EndSplineSet
EndChar

StartChar: cent
Encoding: 162 162 98
GlifName: cent
Width: 2085
VWidth: 4730
Flags: HMW
LayerCount: 2
Fore
SplineSet
1157 2273 m 1
 1157 -348 l 1
 1102 -348 l 1
 1102 2273 l 1
 1157 2273 l 1
EndSplineSet
Refer: 40 99 N 1 0 0 1 0 0 2
EndChar

StartChar: sterling
Encoding: 163 163 99
GlifName: sterling
Width: 2560
VWidth: 4730
Flags: HMW
LayerCount: 2
Fore
SplineSet
2466 643 m 1
 2466 49 2134 -123 1769 -123 c 0
 1208 -123 1024 123 766 123 c 0
 598 123 394 41 353 -82 c 1
 321 -82 l 1
 403 221 569 397 909 397 c 0
 1319 397 1483 258 1794 258 c 0
 2052 258 2410 307 2410 643 c 1
 2466 643 l 1
1905 1659 m 1
 1905 1602 l 1
 61 1602 l 1
 61 1659 l 1
 1905 1659 l 1
483 2253 m 0
 483 2826 914 3113 1573 3113 c 0
 2237 3113 2507 2777 2507 2441 c 0
 2507 2273 2388 2187 2265 2187 c 0
 2163 2187 2032 2253 2032 2417 c 0
 2032 2560 2146 2642 2265 2642 c 0
 2338 2642 2396 2594 2415 2574 c 1
 2415 2747 2182 3056 1626 3056 c 0
 1057 3056 938 2597 938 2294 c 0
 938 1888 1167 1618 1167 1311 c 0
 1167 574 299 553 352 -82 c 1
 295 -82 l 1
 217 487 815 807 815 1069 c 0
 815 1536 483 1782 483 2253 c 0
EndSplineSet
EndChar

StartChar: section
Encoding: 167 167 101
GlifName: section
Width: 1830
VWidth: 4730
Flags: HMW
LayerCount: 2
Fore
SplineSet
433 2645 m 0
 433 2170 1708 2204 1708 1577 c 0
 1708 1323 1474 1190 1253 1043 c 1
 1218 1068 l 1
 1333 1158 1404 1238 1404 1361 c 0
 1404 1898 254 1745 254 2490 c 0
 254 2916 623 3113 930 3113 c 0
 1290 3113 1642 2941 1642 2507 c 0
 1642 2339 1540 2212 1397 2212 c 0
 1274 2212 1176 2294 1176 2441 c 0
 1176 2572 1290 2666 1409 2666 c 0
 1472 2666 1545 2624 1564 2596 c 1
 1542 2882 1273 3056 930 3056 c 0
 662 3056 433 2885 433 2645 c 0
1675 664 m 0
 1675 238 1348 -41 877 -41 c 0
 517 -41 123 103 123 578 c 0
 123 746 226 872 369 872 c 0
 492 872 590 790 590 643 c 0
 590 512 475 418 356 418 c 0
 293 418 220 460 201 488 c 1
 237 154 562 16 877 16 c 0
 1299 16 1438 262 1438 455 c 0
 1438 930 156 868 156 1454 c 0
 156 1749 398 1942 537 2048 c 1
 597 2048 l 1
 557 1999 487 1896 487 1732 c 0
 487 1195 1675 1409 1675 664 c 0
EndSplineSet
EndChar

StartChar: asciitilde
Encoding: 126 126 104
GlifName: asciitilde
Width: 2818
VWidth: 4730
Flags: HMW
LayerCount: 2
Fore
SplineSet
895 1790 m 0
 678 1790 466 1700 466 1405 c 1
 410 1405 l 1
 410 1876 696 2089 1020 2089 c 0
 1471 2089 1489 1704 1882 1704 c 0
 2140 1704 2353 1794 2353 2089 c 1
 2408 2089 l 1
 2408 1618 2122 1405 1798 1405 c 0
 1278 1405 1317 1790 895 1790 c 0
EndSplineSet
EndChar

StartChar: copyright
Encoding: 169 169 105
GlifName: copyright
Width: 3562
Flags: HMW
LayerCount: 2
Fore
SplineSet
205 1536 m 0
 205 2408 910 3113 1782 3113 c 0
 2654 3113 3359 2408 3359 1536 c 0
 3359 664 2654 -41 1782 -41 c 0
 910 -41 205 664 205 1536 c 0
260 1536 m 0
 260 696 942 15 1782 15 c 0
 2622 15 3303 696 3303 1536 c 0
 3303 2376 2622 3057 1782 3057 c 0
 942 3057 260 2376 260 1536 c 0
EndSplineSet
Refer: 14 67 N 0.6 0 0 0.6 838 614 2
EndChar

StartChar: registered
Encoding: 174 174 106
GlifName: registered
Width: 3562
Flags: HMW
LayerCount: 2
Fore
SplineSet
205 1536 m 0
 205 2408 910 3113 1782 3113 c 0
 2654 3113 3359 2408 3359 1536 c 0
 3359 664 2654 -41 1782 -41 c 0
 910 -41 205 664 205 1536 c 0
260 1536 m 0
 260 696 942 15 1782 15 c 0
 2622 15 3303 696 3303 1536 c 0
 3303 2376 2622 3057 1782 3057 c 0
 942 3057 260 2376 260 1536 c 0
EndSplineSet
Refer: 29 82 N 0.6 0 0 0.6 951 606 2
EndChar

StartChar: logicalnot
Encoding: 172 172 107
GlifName: logicalnot
Width: 1990
Flags: HMW
LayerCount: 2
Fore
SplineSet
1689 2463 m 1
 246 2463 l 1
 246 2519 l 1
 1745 2519 l 1
 1745 1692 l 1
 1689 1692 l 1
 1689 2463 l 1
EndSplineSet
EndChar

StartChar: guillemotleft
Encoding: 171 171 108
GlifName: guillemotleft
Width: 2846
Flags: HMW
LayerCount: 2
Fore
SplineSet
1765 1589 m 1
 2630 622 l 1
 2601 594 l 1
 1249 1536 l 1
 1249 1638 l 1
 2601 2580 l 1
 2630 2552 l 1
 1765 1589 l 1
618 1589 m 1
 1482 622 l 1
 1454 594 l 1
 102 1536 l 1
 102 1638 l 1
 1454 2580 l 1
 1482 2552 l 1
 618 1589 l 1
EndSplineSet
EndChar

StartChar: mu
Encoding: 181 181 111
GlifName: mu
Width: 2423
VWidth: 4730
Flags: HMW
LayerCount: 2
Fore
SplineSet
1101 -504 m 0
 1236 -504 1343 -622 1343 -778 c 0
 1343 -938 1258 -1065 959 -1065 c 0
 672 -1065 425 -865 425 -496 c 2
 425 1315 l 1
 481 1315 l 1
 481 -496 l 2
 481 -831 704 -1034 1023 -1009 c 1
 1023 -1032 l 1
 920 -979 856 -877 856 -748 c 0
 856 -613 966 -504 1101 -504 c 0
EndSplineSet
Refer: 58 117 N 1 0 0 1 0 0 2
EndChar

StartChar: asciicircum
Encoding: 94 94 113
GlifName: asciicircum
Width: 2232
Flags: HMW
LayerCount: 2
Fore
SplineSet
1114 2961 m 1
 443 2549 l 1
 410 2580 l 1
 983 3154 l 1
 1249 3154 l 1
 1823 2580 l 1
 1789 2550 l 1
 1114 2961 l 1
EndSplineSet
EndChar

StartChar: degree
Encoding: 176 176 115
GlifName: degree
Width: 1310
Flags: HMW
LayerCount: 2
Fore
SplineSet
164 2785 m 0
 164 3055 385 3277 655 3277 c 0
 925 3277 1147 3055 1147 2785 c 0
 1147 2515 925 2294 655 2294 c 0
 385 2294 164 2515 164 2785 c 0
294 2785 m 0
 294 2578 448 2424 655 2424 c 0
 862 2424 1016 2578 1016 2785 c 0
 1016 2992 862 3146 655 3146 c 0
 448 3146 294 2992 294 2785 c 0
EndSplineSet
EndChar

StartChar: onequarter
Encoding: 188 188 119
GlifName: onequarter
Width: 2624
Flags: HMW
LayerCount: 2
Fore
SplineSet
2110 2662 m 1
 2166 2662 l 1
 209 -410 l 1
 153 -410 l 1
 2110 2662 l 1
EndSplineSet
Refer: 6 52 N 0.6 0 0 0.6 1106 -422 2
Refer: 3 49 N 0.6 0 0 0.6 -33 1458 2
EndChar

StartChar: onehalf
Encoding: 189 189 120
GlifName: onehalf
Width: 2744
Flags: HMW
LayerCount: 2
Fore
SplineSet
2110 2662 m 1
 2165 2662 l 1
 208 -410 l 1
 153 -410 l 1
 2110 2662 l 1
EndSplineSet
Refer: 4 50 N 0.6 0 0 0.6 1397 -414 2
Refer: 3 49 N 0.6 0 0 0.6 -33 1458 2
EndChar

StartChar: threequarters
Encoding: 190 190 121
GlifName: threequarters
Width: 2870
Flags: HMW
LayerCount: 2
Fore
SplineSet
2356 2662 m 1
 2411 2662 l 1
 454 -410 l 1
 399 -410 l 1
 2356 2662 l 1
EndSplineSet
Refer: 5 51 N 0.6 0 0 0.6 20 1450 2
Refer: 6 52 N 0.6 0 0 0.6 1352 -422 2
EndChar

StartChar: grave
Encoding: 96 96 123
GlifName: grave
Width: 1616
Flags: HMW
LayerCount: 2
Fore
SplineSet
369 2952 m 2
 291 2953 225 3014 225 3092 c 0
 225 3170 295 3257 410 3228 c 2
 1385 2976 l 1
 1369 2926 l 1
 369 2952 l 2
EndSplineSet
EndChar

StartChar: acute
Encoding: 180 180 124
GlifName: acute
Width: 1616
Flags: HMW
LayerCount: 2
Fore
SplineSet
1249 2952 m 2
 249 2926 l 1
 233 2976 l 1
 1208 3228 l 2
 1323 3257 1393 3170 1393 3092 c 0
 1393 3014 1327 2953 1249 2952 c 2
EndSplineSet
EndChar

StartChar: cedilla
Encoding: 184 184 128
GlifName: cedilla
Width: 2252
Flags: HMW
LayerCount: 2
Fore
SplineSet
1348 -564 m 0
 1348 -363 1155 -324 889 -324 c 1
 1257 168 l 1
 1327 168 l 1
 1081 -160 l 1
 1376 -172 1638 -263 1638 -492 c 0
 1638 -697 1442 -852 946 -852 c 1
 946 -797 l 1
 1188 -797 1348 -697 1348 -564 c 0
EndSplineSet
EndChar

StartChar: divide
Encoding: 247 247 131
GlifName: divide
Width: 2292
Flags: HMW
LayerCount: 2
Fore
SplineSet
205 1646 m 1
 2088 1646 l 1
 2088 1590 l 1
 205 1590 l 1
 205 1646 l 1
901 860 m 0
 901 995 1012 1106 1147 1106 c 0
 1282 1106 1393 995 1393 860 c 0
 1393 725 1282 615 1147 615 c 0
 1012 615 901 725 901 860 c 0
901 2314 m 0
 901 2449 1012 2560 1147 2560 c 0
 1282 2560 1393 2449 1393 2314 c 0
 1393 2179 1282 2069 1147 2069 c 0
 1012 2069 901 2179 901 2314 c 0
EndSplineSet
EndChar

StartChar: ring
Encoding: 730 730 271
GlifName: ring
Width: 1310
VWidth: 0
Flags: HMW
LayerCount: 2
Fore
SplineSet
287 2785 m 0
 287 2994 446 3154 655 3154 c 0
 864 3154 1024 2994 1024 2785 c 0
 1024 2576 864 2417 655 2417 c 0
 446 2417 287 2576 287 2785 c 0
436 2785 m 0
 436 2623 490 2472 655 2472 c 0
 820 2472 874 2623 874 2785 c 0
 874 2947 820 3098 655 3098 c 0
 490 3098 436 2947 436 2785 c 0
EndSplineSet
EndChar

StartChar: tilde
Encoding: 732 732 272
GlifName: tilde
Width: 1834
VWidth: 0
Flags: HMW
LayerCount: 2
Fore
SplineSet
530 2740 m 0
 395 2740 260 2671 260 2458 c 1
 205 2458 l 1
 205 2806 426 2978 627 2978 c 0
 937 2978 1089 2654 1305 2654 c 0
 1467 2654 1574 2724 1574 2937 c 1
 1630 2937 l 1
 1630 2548 1491 2417 1249 2417 c 0
 951 2417 774 2740 530 2740 c 0
EndSplineSet
EndChar

StartChar: AE
Encoding: 198 198 274
GlifName: A_E_
Width: 4118
Flags: HMW
LayerCount: 2
Fore
SplineSet
2150 3072 m 1
 2206 3072 l 1
 479 0 l 1
 416 0 l 1
 2150 3072 l 1
61 56 m 1
 963 56 l 1
 963 0 l 1
 61 0 l 1
 61 56 l 1
1009 1032 m 1
 2191 1032 l 1
 2191 976 l 1
 1009 976 l 1
 1009 1032 l 1
2150 3072 m 1
 2540 3072 l 1
 2540 0 l 1
 2150 0 l 1
 2150 3072 l 1
2150 3072 m 1
 3955 3072 l 1
 3955 2232 l 1
 3899 2232 l 1
 3899 2670 3715 3016 3236 3016 c 2
 2150 3016 l 1
 2150 3072 l 1
3996 0 m 1
 1782 0 l 1
 1782 56 l 1
 3195 56 l 2
 3756 56 3940 402 3940 922 c 1
 3996 922 l 1
 3996 0 l 1
3203 1139 m 1
 3203 1413 3018 1562 2785 1562 c 2
 2540 1562 l 1
 2540 1618 l 1
 2785 1618 l 2
 3018 1618 3203 1745 3203 2019 c 1
 3259 2019 l 1
 3259 1139 l 1
 3203 1139 l 1
EndSplineSet
EndChar

StartChar: ae
Encoding: 230 230 277
GlifName: ae
Width: 3124
VWidth: 4730
Flags: HMW
LayerCount: 2
Fore
SplineSet
287 1499 m 0
 287 1753 643 1917 1016 1917 c 0
 1548 1917 1581 1581 1581 1249 c 1
 1520 741 l 1
 1520 233 1274 -41 819 -41 c 0
 495 -41 143 78 143 463 c 0
 143 807 458 1056 1040 1056 c 2
 1384 1056 l 1
 1384 1000 l 1
 1040 1000 l 2
 729 1000 561 778 561 524 c 0
 561 250 671 17 896 17 c 0
 1129 17 1294 327 1294 741 c 2
 1294 1249 l 2
 1294 1523 1262 1844 934 1844 c 0
 726 1844 571 1772 497 1705 c 1
 628 1723 741 1638 741 1507 c 0
 741 1343 602 1274 500 1274 c 0
 377 1274 287 1352 287 1499 c 0
2585 1084 m 1
 2581 1391 2536 1868 2171 1868 c 0
 1765 1868 1659 1409 1659 942 c 0
 1659 475 1786 18 2232 18 c 0
 2607 18 2864 271 2966 586 c 1
 3023 586 l 1
 2917 230 2638 -41 2183 -41 c 0
 1646 -41 1311 328 1311 942 c 0
 1311 1556 1634 1925 2171 1925 c 0
 2781 1925 3019 1474 3019 1028 c 1
 1503 1028 l 1
 1503 1084 l 1
 2585 1084 l 1
EndSplineSet
EndChar

StartChar: perthousand
Encoding: 8240 8240 285
GlifName: perthousand
Width: 6020
Flags: HMW
LayerCount: 2
Fore
SplineSet
4690 860 m 0
 4690 442 4755 15 5058 15 c 0
 5361 15 5427 442 5427 860 c 0
 5427 1278 5361 1706 5058 1706 c 0
 4755 1706 4690 1278 4690 860 c 0
4239 860 m 0
 4239 1446 4595 1761 5058 1761 c 0
 5521 1761 5878 1446 5878 860 c 0
 5878 274 5439 -41 5058 -41 c 0
 4595 -41 4239 274 4239 860 c 0
2765 860 m 0
 2765 442 2830 15 3133 15 c 0
 3436 15 3502 442 3502 860 c 0
 3502 1278 3436 1706 3133 1706 c 0
 2830 1706 2765 1278 2765 860 c 0
2314 860 m 0
 2314 1446 2670 1761 3133 1761 c 0
 3596 1761 3953 1446 3953 860 c 0
 3953 274 3514 -41 3133 -41 c 0
 2670 -41 2314 274 2314 860 c 0
3080 3072 m 1
 3145 3072 l 1
 1016 0 l 1
 951 0 l 1
 3080 3072 l 1
594 2212 m 0
 594 1794 660 1366 963 1366 c 0
 1266 1366 1331 1794 1331 2212 c 0
 1331 2630 1266 3057 963 3057 c 0
 660 3057 594 2630 594 2212 c 0
143 2212 m 0
 143 2798 500 3113 963 3113 c 0
 1426 3113 1782 2798 1782 2212 c 0
 1782 1626 1344 1311 963 1311 c 0
 500 1311 143 1626 143 2212 c 0
EndSplineSet
EndChar

StartChar: uni2031
Encoding: 8241 8241 286
GlifName: uni2031
Width: 7986
Flags: HMW
LayerCount: 2
Fore
SplineSet
6656 860 m 0
 6656 442 6721 15 7024 15 c 0
 7327 15 7393 442 7393 860 c 0
 7393 1278 7327 1706 7024 1706 c 0
 6721 1706 6656 1278 6656 860 c 0
6205 860 m 0
 6205 1446 6561 1761 7024 1761 c 0
 7487 1761 7844 1446 7844 860 c 0
 7844 274 7405 -41 7024 -41 c 0
 6561 -41 6205 274 6205 860 c 0
4690 860 m 0
 4690 442 4755 15 5058 15 c 0
 5361 15 5427 442 5427 860 c 0
 5427 1278 5361 1706 5058 1706 c 0
 4755 1706 4690 1278 4690 860 c 0
4239 860 m 0
 4239 1446 4595 1761 5058 1761 c 0
 5521 1761 5878 1446 5878 860 c 0
 5878 274 5439 -41 5058 -41 c 0
 4595 -41 4239 274 4239 860 c 0
2765 860 m 0
 2765 442 2830 15 3133 15 c 0
 3436 15 3502 442 3502 860 c 0
 3502 1278 3436 1706 3133 1706 c 0
 2830 1706 2765 1278 2765 860 c 0
2314 860 m 0
 2314 1446 2670 1761 3133 1761 c 0
 3596 1761 3953 1446 3953 860 c 0
 3953 274 3514 -41 3133 -41 c 0
 2670 -41 2314 274 2314 860 c 0
3080 3072 m 1
 3145 3072 l 1
 1016 0 l 1
 951 0 l 1
 3080 3072 l 1
594 2212 m 0
 594 1794 660 1366 963 1366 c 0
 1266 1366 1331 1794 1331 2212 c 0
 1331 2630 1266 3057 963 3057 c 0
 660 3057 594 2630 594 2212 c 0
143 2212 m 0
 143 2798 500 3113 963 3113 c 0
 1426 3113 1782 2798 1782 2212 c 0
 1782 1626 1344 1311 963 1311 c 0
 500 1311 143 1626 143 2212 c 0
EndSplineSet
EndChar

StartChar: uniFB00
Encoding: 64256 64256 290
GlifName: uniF_B_00
Width: 2797
VWidth: 4730
Flags: HMW
LayerCount: 2
Fore
SplineSet
124 56 m 1
 2527 56 l 1
 2527 0 l 1
 124 0 l 1
 124 56 l 1
124 1884 m 1
 2609 1884 l 1
 2609 1828 l 1
 124 1828 l 1
 124 1884 l 1
1837 2590 m 1
 1822 2677 1664 2852 1390 2852 c 0
 1045 2852 860 2527 860 2007 c 2
 860 0 l 1
 492 0 l 1
 492 1892 l 2
 492 2429 841 2908 1390 2908 c 0
 1732 2908 1946 2662 1946 2469 c 0
 1946 2301 1835 2215 1712 2215 c 0
 1610 2215 1482 2283 1482 2442 c 0
 1482 2594 1592 2661 1706 2661 c 0
 1764 2661 1815 2635 1837 2590 c 1
2905 2818 m 5
 2875 2925 2730 3057 2486 3057 c 0
 2158 3057 2048 2732 2048 2212 c 2
 2048 0 l 1
 1680 0 l 1
 1680 2097 l 2
 1680 2634 1954 3113 2486 3113 c 0
 2818 3113 2990 2900 2990 2707 c 0
 2990 2539 2879 2454 2756 2454 c 0
 2654 2454 2527 2520 2527 2679 c 0
 2527 2831 2636 2899 2743 2899 c 0
 2814 2899 2877 2871 2905 2818 c 5
EndSplineSet
Ligature2: "'liga' Standard Ligatures lookup 0-1" f f
LCarets2: 1 0
EndChar

StartChar: uniFB01
Encoding: 64257 64257 291
GlifName: uniF_B_01
Width: 2457
VWidth: 4730
Flags: HMW
LayerCount: 2
Fore
SplineSet
492 2097 m 2
 492 2634 825 3113 1435 3113 c 0
 1839 3113 2028 2917 2028 2680 c 0
 2028 2512 1917 2426 1794 2426 c 0
 1687 2426 1564 2497 1564 2648 c 0
 1564 2795 1675 2872 1782 2872 c 0
 1869 2872 1925 2832 1943 2789 c 5
 1914 2916 1770 3057 1435 3057 c 0
 1003 3057 860 2732 860 2212 c 2
 860 0 l 1
 492 0 l 1
 492 2097 l 2
124 56 m 1
 2293 56 l 1
 2293 0 l 1
 124 0 l 1
 124 56 l 1
1638 1828 m 1
 124 1828 l 1
 124 1884 l 1
 2007 1884 l 1
 2007 0 l 1
 1638 0 l 1
 1638 1828 l 1
EndSplineSet
Ligature2: "'liga' Standard Ligatures lookup 0-1" f i
LCarets2: 1 0
EndChar

StartChar: uniFB02
Encoding: 64258 64258 292
GlifName: uniF_B_02
Width: 2518
VWidth: 4730
Flags: HMW
LayerCount: 2
Fore
SplineSet
124 56 m 1
 2376 56 l 1
 2376 0 l 1
 124 0 l 1
 124 56 l 1
124 1884 m 1
 1421 1884 l 1
 1421 1828 l 1
 124 1828 l 1
 124 1884 l 1
1693 2990 m 5
 2063 3154 l 1
 2063 0 l 1
 1693 0 l 5
 1693 2990 l 5
1745 2815 m 5
 1728 2937 1573 3057 1331 3057 c 0
 948 3057 860 2732 860 2212 c 2
 860 0 l 1
 492 0 l 1
 492 2097 l 2
 492 2634 799 3113 1331 3113 c 0
 1663 3113 1840 2913 1840 2693 c 0
 1840 2525 1729 2440 1606 2440 c 0
 1504 2440 1376 2497 1376 2661 c 0
 1376 2818 1489 2887 1608 2887 c 0
 1684 2887 1733 2820 1745 2815 c 5
EndSplineSet
Ligature2: "'liga' Standard Ligatures lookup 0-1" f l
LCarets2: 1 0
EndChar

StartChar: uniFB03
Encoding: 64259 64259 293
GlifName: uniF_B_03
Width: 3645
VWidth: 4730
Flags: HMW
LayerCount: 2
Fore
SplineSet
1680 2101 m 2
 1680 2638 2019 3116 2623 3116 c 0
 3027 3116 3214 2917 3214 2680 c 0
 3214 2512 3105 2426 2982 2426 c 0
 2875 2426 2752 2497 2752 2648 c 0
 2752 2795 2863 2873 2970 2873 c 0
 3050 2873 3119 2832 3137 2790 c 5
 3112 2907 2958 3060 2623 3060 c 0
 2197 3060 2048 2760 2048 2215 c 2
 2048 3 l 1
 1680 3 l 1
 1680 2101 l 2
124 56 m 1
 3482 56 l 1
 3482 0 l 1
 124 0 l 1
 124 56 l 1
492 1892 m 2
 492 2426 834 2908 1390 2908 c 0
 1732 2908 1945 2675 1945 2469 c 0
 1945 2301 1835 2215 1712 2215 c 0
 1610 2215 1482 2283 1482 2442 c 0
 1482 2594 1592 2667 1699 2667 c 0
 1770 2667 1818 2638 1845 2585 c 1
 1828 2679 1664 2852 1390 2852 c 0
 1038 2852 860 2527 860 2007 c 2
 860 0 l 1
 492 0 l 1
 492 1892 l 2
2826 1828 m 1
 124 1828 l 1
 124 1884 l 1
 3194 1884 l 1
 3194 0 l 1
 2826 0 l 1
 2826 1828 l 1
EndSplineSet
Ligature2: "'liga' Standard Ligatures lookup 0-1" f f i
LCarets2: 2 0 0
EndChar

StartChar: uniFB04
Encoding: 64260 64260 294
GlifName: uniF_B_04
Width: 3657
VWidth: 4730
Flags: HMW
LayerCount: 2
Fore
SplineSet
124 56 m 1
 3537 56 l 1
 3537 0 l 1
 124 0 l 1
 124 56 l 1
124 1884 m 1
 2581 1884 l 1
 2581 1828 l 1
 124 1828 l 1
 124 1884 l 1
2853 2990 m 1
 3222 3154 l 1
 3222 0 l 1
 2853 0 l 1
 2853 2990 l 1
1811 2590 m 1
 1788 2684 1644 2852 1370 2852 c 0
 1032 2852 860 2527 860 2007 c 2
 860 0 l 1
 492 0 l 1
 492 1892 l 2
 492 2429 828 2908 1370 2908 c 0
 1712 2908 1919 2662 1919 2469 c 0
 1919 2301 1808 2215 1685 2215 c 0
 1583 2215 1455 2283 1455 2442 c 0
 1455 2594 1566 2661 1673 2661 c 0
 1742 2661 1787 2635 1811 2590 c 1
2895 2809 m 1
 2894 2911 2747 3057 2491 3057 c 0
 2108 3057 2021 2732 2021 2212 c 2
 2021 0 l 1
 1653 0 l 1
 1653 2097 l 2
 1653 2634 1959 3113 2491 3113 c 0
 2823 3113 2994 2913 2994 2693 c 0
 2994 2525 2883 2439 2760 2439 c 0
 2658 2439 2530 2497 2530 2661 c 0
 2530 2818 2641 2886 2761 2886 c 0
 2837 2886 2883 2821 2895 2809 c 1
EndSplineSet
Ligature2: "'liga' Standard Ligatures lookup 0-1" f f l
LCarets2: 2 0 0
EndChar

StartChar: ogonek
Encoding: 731 731 295
GlifName: ogonek
Width: 2252
Flags: HMW
LayerCount: 2
Fore
SplineSet
1589 -463 m 1
 1528 -578 1409 -762 1118 -762 c 0
 909 -762 676 -656 676 -410 c 0
 676 -82 995 94 1245 176 c 1
 1268 144 l 1
 1141 74 1057 -103 1057 -334 c 0
 1057 -513 1139 -647 1278 -647 c 0
 1416 -647 1487 -551 1554 -438 c 1
 1589 -463 l 1
EndSplineSet
EndChar

StartChar: dotlessi
Encoding: 305 305 296
GlifName: dotlessi
Width: 1175
VWidth: 4730
Flags: HMW
LayerCount: 2
Fore
SplineSet
117 56 m 1
 1059 56 l 1
 1059 0 l 1
 117 0 l 1
 117 56 l 1
404 1828 m 1
 117 1828 l 1
 117 1884 l 1
 773 1884 l 1
 773 0 l 1
 404 0 l 1
 404 1828 l 1
EndSplineSet
EndChar

StartChar: uni0237
Encoding: 567 567 297
GlifName: uni0237
Width: 1223
VWidth: 4730
Flags: HMW
LayerCount: 2
Fore
SplineSet
858 1884 m 1
 858 -49 l 2
 858 -586 747 -1065 215 -1065 c 0
 -117 -1065 -289 -851 -289 -618 c 0
 -289 -450 -179 -365 -56 -365 c 0
 46 -365 174 -422 174 -586 c 0
 174 -730 79 -813 -61 -813 c 0
 -113 -813 -183 -777 -207 -736 c 1
 -187 -866 -35 -1010 194 -1010 c 0
 563 -1010 490 -438 490 82 c 2
 490 1828 l 1
 133 1828 l 1
 133 1884 l 1
 858 1884 l 1
EndSplineSet
EndChar

StartChar: kgreenlandic
Encoding: 312 312 306
GlifName: kgreenlandic
Width: 2443
VWidth: 4730
Flags: HMW
LayerCount: 2
Fore
SplineSet
2206 0 m 1
 1752 0 l 1
 834 1075 l 1
 1862 1884 l 1
 1938 1884 l 1
 1143 1249 l 1
 2206 0 l 1
1390 56 m 1
 2360 56 l 1
 2360 0 l 1
 1390 0 l 1
 1390 56 l 1
2222 1828 m 1
 1308 1828 l 1
 1308 1884 l 1
 2222 1884 l 1
 2222 1828 l 1
124 56 m 1
 1148 56 l 1
 1148 0 l 1
 124 0 l 1
 124 56 l 1
494 1828 m 1
 124 1828 l 1
 124 1884 l 1
 862 1884 l 1
 862 0 l 1
 494 0 l 1
 494 1828 l 1
EndSplineSet
EndChar

StartChar: breve
Encoding: 728 728 307
GlifName: breve
Width: 1146
VWidth: 4730
Flags: HMW
LayerCount: 2
Fore
SplineSet
156 3109 m 1
 156 2908 352 2806 573 2806 c 0
 794 2806 991 2908 991 3109 c 1
 1024 3109 l 1
 1024 2859 942 2580 573 2580 c 0
 204 2580 123 2859 123 3109 c 1
 156 3109 l 1
EndSplineSet
EndChar

StartChar: thorn
Encoding: 254 254 318
GlifName: thorn
Width: 2410
VWidth: 4730
Flags: HMW
LayerCount: 2
Fore
SplineSet
710 942 m 0
 710 1518 974 1921 1402 1921 c 0
 1838 1921 2253 1556 2253 942 c 0
 2253 328 1838 -41 1402 -41 c 0
 974 -41 710 366 710 942 c 0
752 942 m 0
 752 362 1023 42 1333 42 c 0
 1660 42 1829 393 1829 942 c 0
 1829 1491 1660 1838 1333 1838 c 0
 1023 1838 752 1522 752 942 c 0
97 -968 m 1
 1039 -968 l 1
 1039 -1024 l 1
 97 -1024 l 1
 97 -968 l 1
383 3016 m 1
 97 3016 l 1
 97 3072 l 1
 752 3072 l 1
 752 -1024 l 1
 383 -1024 l 1
 383 3016 l 1
EndSplineSet
EndChar

StartChar: Thorn
Encoding: 222 222 319
GlifName: T_horn
Width: 2478
Flags: HMW
LayerCount: 2
Fore
SplineSet
430 3072 m 1
 819 3072 l 1
 819 0 l 1
 430 0 l 1
 430 3072 l 1
61 56 m 1
 1188 56 l 1
 1188 0 l 1
 61 0 l 1
 61 56 l 1
61 3072 m 1
 1188 3072 l 1
 1188 3016 l 1
 61 3016 l 1
 61 3072 l 1
1270 737 m 2
 737 737 l 1
 737 793 l 1
 1270 793 l 2
 1663 793 1884 1232 1884 1597 c 0
 1884 1962 1663 2402 1270 2402 c 2
 737 2402 l 1
 737 2458 l 1
 1270 2458 l 2
 2011 2458 2335 2129 2335 1597 c 0
 2335 1065 2011 737 1270 737 c 2
EndSplineSet
EndChar

StartChar: Lslash
Encoding: 321 321 324
GlifName: L_slash
Width: 2422
Flags: HMW
LayerCount: 2
Fore
SplineSet
119 1475 m 1
 1532 2376 l 1
 1532 2310 l 1
 119 1408 l 1
 119 1475 l 1
EndSplineSet
Refer: 23 76 N 1 0 0 1 0 0 2
EndChar

StartChar: lslash
Encoding: 322 322 325
GlifName: lslash
Width: 1337
VWidth: 4730
Flags: HMW
LayerCount: 2
Fore
SplineSet
124 1638 m 1
 1292 2376 l 1
 1292 2310 l 1
 124 1572 l 1
 124 1638 l 1
EndSplineSet
Refer: 49 108 N 1 0 0 1 0 0 2
EndChar

StartChar: eth
Encoding: 240 240 329
GlifName: eth
Width: 2292
VWidth: 4730
Flags: HMW
LayerCount: 2
Fore
SplineSet
451 2580 m 1
 2171 2580 l 1
 2171 2524 l 1
 451 2524 l 1
 451 2580 l 1
2089 1270 m 0
 2089 410 1708 -41 1090 -41 c 0
 472 -41 123 410 123 1024 c 0
 123 1720 606 2007 1020 2007 c 0
 1557 2007 1727 1626 1727 1147 c 1
 1680 1147 l 1
 1680 1605 1505 1925 1110 1925 c 0
 745 1925 533 1573 533 1024 c 0
 533 557 631 15 1077 15 c 0
 1523 15 1680 598 1680 1147 c 1
 1673 1379 l 1
 1673 2166 1143 3061 430 3061 c 1
 430 3113 l 1
 1339 3113 2089 2276 2089 1270 c 0
EndSplineSet
EndChar

StartChar: OE
Encoding: 338 338 330
GlifName: O_E_
Width: 3944
Flags: HMW
LayerCount: 2
Fore
SplineSet
1611 3016 m 1025,0,0
635 1536 m 0,0,0
 635 791 857 56 1611 56 c 1,0,0
 1569 0 l 1,0,0
 738 0 164 623 164 1536 c 0,0,0
 164 2449 738 3072 1569 3072 c 1,0,0
 1611 3016 l 1,0,0
 857 3016 635 2281 635 1536 c 0,0,0
EndSplineSet
Refer: 16 69 N 1 0 0 1 1457 0 2
EndChar

StartChar: germandbls
Encoding: 223 223 332
GlifName: germandbls
Width: 2788
VWidth: 4730
Flags: HMW
LayerCount: 2
Fore
SplineSet
1405 1650 m 1
 1405 1686 l 1
 1933 1686 2089 2077 2089 2339 c 0
 2089 2634 1954 3061 1528 3061 c 0
 979 3061 799 2552 799 1970 c 2
 799 0 l 1
 430 0 l 1
 430 2011 l 2
 430 2720 860 3113 1528 3113 c 0
 2114 3113 2503 2761 2503 2380 c 0
 2503 1970 2228 1650 1405 1650 c 1
61 56 m 1
 1167 56 l 1
 1167 0 l 1
 61 0 l 1
 61 56 l 1
2626 655 m 0
 2626 245 2261 -41 1847 -41 c 0
 1556 -41 1323 180 1323 557 c 0
 1323 725 1434 823 1577 823 c 0
 1700 823 1798 741 1798 594 c 0
 1798 463 1684 369 1565 369 c 0
 1476 369 1411 429 1389 486 c 1
 1404 211 1593 20 1827 20 c 0
 2151 20 2212 393 2212 655 c 0
 2212 1040 2097 1632 1405 1632 c 1
 1405 1668 l 1
 2392 1668 2626 1187 2626 655 c 0
EndSplineSet
EndChar

StartChar: circumflex
Encoding: 710 710 335
GlifName: circumflex
Width: 1576
Flags: HMW
LayerCount: 2
Fore
SplineSet
786 2970 m 1
 232 2673 l 1
 205 2703 l 1
 655 3154 l 1
 922 3154 l 1
 1372 2703 l 1
 1344 2673 l 1
 786 2970 l 1
EndSplineSet
EndChar

StartChar: caron
Encoding: 711 711 336
GlifName: caron
Width: 1576
Flags: HMW
LayerCount: 2
Fore
SplineSet
786 2929 m 1
 1342 3222 l 1
 1372 3195 l 1
 922 2744 l 1
 655 2744 l 1
 205 3195 l 1
 235 3222 l 1
 786 2929 l 1
EndSplineSet
EndChar

StartChar: pi
Encoding: 960 960 337
GlifName: pi
Width: 2378
VWidth: 4730
Flags: HMW
LayerCount: 2
Fore
SplineSet
2236 422 m 1
 2142 135 1998 -41 1794 -41 c 0
 1601 -41 1417 57 1417 299 c 2
 1417 1720 l 1
 1786 1720 l 1
 1786 369 l 2
 1786 287 1839 221 1937 221 c 0
 2038 221 2116 280 2199 446 c 1
 2236 422 l 1
426 -41 m 0
 258 -41 184 54 184 156 c 0
 184 435 643 336 643 1143 c 2
 643 1843 l 1
 872 1843 l 1
 872 995 l 2
 872 348 705 -41 426 -41 c 0
2154 1884 m 1
 2154 1516 l 1
 224 1516 l 1
 224 1208 l 1
 168 1208 l 1
 168 1884 l 1
 2154 1884 l 1
EndSplineSet
EndChar

StartChar: uni1E9E
Encoding: 7838 7838 338
GlifName: uni1E_9E_
Width: 3280
VWidth: 4730
Flags: HMW
LayerCount: 2
Fore
SplineSet
61 56 m 1
 1208 56 l 1
 1208 0 l 1
 61 0 l 1
 61 56 l 1
2143 1652 m 1
 2005 1670 1870 1685 1733 1700 c 1
 2677 2868 l 1
 2511 2965 2236 3056 1896 3056 c 0
 1183 3056 840 2470 840 1765 c 2
 840 0 l 1
 430 0 l 1
 430 1806 l 2
 430 2637 1065 3113 1896 3113 c 0
 2523 3113 2871 2842 2994 2707 c 1
 2143 1652 l 1
1346 439 m 1
 1360 268 1592 25 2011 25 c 0
 2498 25 2683 393 2683 778 c 0
 2683 1081 2630 1646 1733 1646 c 1
 1733 1700 l 1
 2925 1700 3117 1229 3117 778 c 0
 3117 246 2671 -41 2093 -41 c 0
 1511 -41 1249 262 1249 557 c 0
 1249 725 1352 823 1495 823 c 0
 1618 823 1716 741 1716 594 c 0
 1716 463 1602 369 1483 369 c 0
 1414 369 1362 409 1346 439 c 1
EndSplineSet
EndChar

StartChar: uni203D
Encoding: 8253 8253 339
GlifName: uni203D_
Width: 2456
Flags: HMW
LayerCount: 2
Fore
SplineSet
1499 1982 m 0
 1454 1589 1244 1139 1244 852 c 1
 1188 852 l 1
 1188 1139 1061 1589 1016 1982 c 0
 1012 2011 1012 2035 1012 2060 c 0
 1012 2175 1064 2367 1257 2367 c 0
 1450 2367 1503 2175 1503 2060 c 0
 1503 2035 1503 2011 1499 1982 c 0
287 2216 m 0
 287 2593 671 3113 1335 3113 c 0
 1953 3113 2335 2785 2335 2253 c 0
 2335 1761 1835 1372 1339 1372 c 1
 1339 1413 l 1
 1695 1458 1962 1899 1962 2294 c 0
 1962 2679 1687 3019 1241 3019 c 0
 692 3019 414 2590 386 2350 c 1
 405 2380 447 2417 520 2417 c 0
 639 2417 754 2334 754 2191 c 0
 754 2027 622 1962 520 1962 c 0
 397 1962 287 2048 287 2216 c 0
EndSplineSet
Refer: 1 46 N 1 0 0 1 815 0 2
EndChar

StartChar: R.alt
Encoding: 65536 -1 340
GlifName: R_.alt
Width: 2829
Flags: HMW
LayerCount: 2
Fore
SplineSet
1461 1553 m 2
 847 1553 l 1
 847 1588 l 1
 1461 1588 l 2
 1854 1588 2075 1851 2075 2297 c 0
 2075 2743 1854 3016 1461 3016 c 2
 109 3016 l 1
 109 3072 l 1
 1461 3072 l 2
 2079 3072 2485 2829 2485 2297 c 0
 2485 1765 2120 1553 1461 1553 c 2
109 56 m 1
 1399 56 l 1
 1399 0 l 1
 109 0 l 1
 109 56 l 1
559 3072 m 1
 949 3072 l 1
 949 0 l 1
 559 0 l 1
 559 3072 l 1
2751 0 m 1
 2685 0 2612 0 2465 0 c 0
 1511 0 2408 1531 1441 1531 c 2
 847 1531 l 1
 847 1564 l 1
 1523 1564 l 2
 2928 1564 2144 56 2607 56 c 0
 2693 56 2694 56 2751 56 c 1
 2751 0 l 1
EndSplineSet
EndChar

StartChar: J.alt
Encoding: 65537 -1 341
GlifName: J_.alt
Width: 2214
Flags: HMW
LayerCount: 2
Fore
SplineSet
864 3072 m 1
 2154 3072 l 1
 2154 3016 l 1
 864 3016 l 1
 864 3072 l 1
1356 3072 m 1
 1745 3072 l 1
 1745 1147 l 2
 1745 492 1421 -41 762 -41 c 0
 283 -41 82 307 82 594 c 0
 82 848 233 983 397 983 c 0
 540 983 668 909 668 721 c 0
 668 578 534 463 395 463 c 0
 295 463 169 516 135 600 c 5
 131 317 328 16 762 16 c 0
 1258 16 1356 451 1356 1024 c 2
 1356 3072 l 1
EndSplineSet
EndChar

StartChar: four.alt
Encoding: 65538 -1 342
GlifName: four.alt
Width: 2436
VWidth: 4730
Flags: HMW
LayerCount: 2
Fore
SplineSet
2171 56 m 1
 2171 0 l 1
 1085 0 l 1
 1085 56 l 1
 2171 56 l 1
1864 2040 m 1
 1864 -3 l 1
 1475 -3 l 1
 1475 1958 l 1
 1598 1958 1782 1999 1864 2040 c 1
156 802 m 1
 2232 802 l 1
 2232 747 l 1
 61 747 l 1
 634 1566 1311 2458 1393 3072 c 1
 1794 3072 l 1
 1716 2478 734 1597 156 802 c 1
EndSplineSet
EndChar

StartChar: fj.lig
Encoding: 65539 -1 343
GlifName: fj.lig
Width: 2314
VWidth: 4730
Flags: HMW
LayerCount: 2
Fore
SplineSet
124 56 m 1
 1250 56 l 1
 1250 0 l 1
 124 0 l 1
 124 56 l 1
1946 -49 m 2
 1946 -586 1836 -1065 1304 -1065 c 0
 972 -1065 800 -851 800 -618 c 0
 800 -450 909 -365 1032 -365 c 0
 1134 -365 1262 -422 1262 -586 c 0
 1262 -743 1154 -813 1026 -813 c 0
 967 -813 902 -777 880 -736 c 1
 904 -873 1060 -1009 1282 -1009 c 0
 1651 -1009 1578 -438 1578 82 c 2
 1578 1828 l 1
 124 1828 l 1
 124 1884 l 1
 1946 1884 l 1
 1946 -49 l 2
1889 2797 m 5
 1860 2919 1712 3057 1380 3057 c 0
 987 3057 860 2732 860 2212 c 2
 860 0 l 1
 492 0 l 1
 492 2097 l 2
 492 2634 766 3113 1380 3113 c 0
 1794 3113 1966 2913 1966 2680 c 0
 1966 2512 1857 2427 1734 2427 c 0
 1632 2427 1504 2484 1504 2648 c 0
 1504 2792 1626 2872 1731 2872 c 0
 1819 2872 1870 2833 1889 2797 c 5
EndSplineSet
LCarets2: 1 0
Ligature2: "'liga' Standard Ligatures lookup 0-1" f j
EndChar

StartChar: uni2116
Encoding: 8470 8470 344
GlifName: uni2116
Width: 4532
Flags: HMW
LayerCount: 2
Fore
SplineSet
3382 2335 m 0
 3382 1868 3484 1612 3726 1612 c 0
 3968 1612 4070 1868 4070 2335 c 0
 4070 2802 3968 3056 3726 3056 c 0
 3484 3056 3382 2802 3382 2335 c 0
3034 2335 m 0
 3034 2827 3312 3113 3726 3113 c 0
 4140 3113 4419 2827 4419 2335 c 0
 4419 1843 4140 1556 3726 1556 c 0
 3312 1556 3034 1843 3034 2335 c 0
EndSplineSet
Refer: 85 45 N 1 0 0 1 2989 164 2
Refer: 25 78 N 1 0 0 1 0 0 2
EndChar

StartChar: Euro
Encoding: 8364 8364 345
GlifName: E_uro
Width: 2908
Flags: HMW
LayerCount: 2
Fore
SplineSet
2585 2664 m 1
 2518 2814 2293 3052 1921 3052 c 0
 1229 3052 983 2249 983 1536 c 0
 983 741 1295 26 1823 26 c 0
 2226 26 2511 369 2613 729 c 1
 2675 729 l 1
 2569 332 2270 -41 1774 -41 c 0
 1156 -41 512 594 512 1536 c 0
 512 2396 1057 3113 1880 3113 c 0
 2380 3113 2683 2736 2683 2523 c 0
 2683 2355 2572 2269 2449 2269 c 0
 2347 2269 2216 2335 2216 2499 c 0
 2216 2642 2330 2724 2449 2724 c 0
 2522 2724 2569 2683 2585 2664 c 1
EndSplineSet
Refer: 88 61 N 1 0 0 1 -123 -287 2
EndChar

